# Blender 4.2.3 LTS
# www.blender.org
mtllib altar_with_textures.mtl
o Altar_low_002
v -0.510000 1.018262 1.222479
v 0.510000 1.018262 1.222479
v -0.510000 1.018262 -1.238358
v 0.510000 1.018262 -1.238358
v 0.500168 1.018262 0.810447
v 0.500168 1.018262 -0.826796
v -0.500168 1.018262 -0.826796
v 0.605908 1.018262 -1.238358
v 0.605908 1.018262 -0.833842
v 0.605908 1.018262 0.810447
v 0.591874 0.987618 1.207578
v -0.605908 1.018262 1.222479
v -0.605908 1.018262 0.810447
v -0.605908 1.018262 -0.826796
v -0.605908 1.018262 -1.238358
v -0.594027 0.144205 0.822330
v -0.620000 0.144205 1.184623
v -0.500000 0.144205 1.210596
v 0.500000 0.144205 1.210596
v 0.594027 0.144205 1.210596
v 0.620000 0.144205 0.848303
v 0.500000 0.144205 0.822330
v 0.500000 0.144205 -0.838444
v 0.594027 0.144205 -0.838444
v 0.620000 0.144205 -1.200738
v 0.500000 0.144205 -1.226711
v -0.500000 0.144205 -1.226711
v -0.594027 0.144205 -1.226711
v -0.620000 0.144205 -0.864417
v -0.500000 0.144205 -0.838444
v -0.500000 0.144205 0.822330
v 0.500000 0.144205 1.362133
v -0.500000 0.144205 1.362133
v -0.607152 0.144205 0.715177
v -0.607152 0.144205 -0.731292
v -0.500000 0.144205 -1.378247
v 0.500000 0.144205 -1.378247
v 0.607152 0.144205 -0.731291
v 0.607152 0.144205 0.715177
v -0.500000 0.053618 -1.416247
v -0.728648 0.053618 -1.366278
v -0.754022 0.053618 -0.730394
v -0.634022 0.053618 -0.704422
v -0.634022 0.053618 0.688307
v -0.728049 0.053618 0.688307
v -0.754022 0.053618 1.312885
v -0.500000 0.053618 1.400133
v 0.500000 0.053618 1.400133
v 0.728648 0.053618 1.350164
v 0.754022 0.053618 0.714280
v 0.634022 0.053618 0.688307
v 0.634022 0.053618 -0.704421
v 0.728049 0.053618 -0.704421
v 0.754022 0.053618 -1.334760
v 0.500000 0.053618 -1.416247
v 0.517905 -0.005125 -1.522310
v -0.517905 -0.005125 -1.522310
v -0.751940 -0.005126 -0.586504
v -0.751940 -0.005126 0.570390
v -0.517905 -0.005126 1.506196
v 0.517905 -0.005126 1.506196
v 0.751940 -0.005126 0.570390
v 0.751940 -0.005126 -0.586504
v 0.516694 0.053617 1.495407
v -0.516694 0.053617 1.495407
v -0.743964 0.053618 0.578366
v -0.743964 0.053618 -0.594480
v -0.516694 0.053618 -1.511521
v 0.516694 0.053618 -1.511521
v 0.743964 0.053618 -0.594480
v 0.743964 0.053618 0.578366
v 0.632400 1.018262 -1.210827
v 0.632400 1.018262 -0.854327
v 0.632400 1.018262 0.838010
v 0.630912 0.984726 1.170360
v -0.632400 1.018262 1.194916
v -0.632400 1.018262 0.838010
v -0.632400 1.018262 -0.854327
v -0.632400 1.018262 -1.210827
v -0.620000 0.144205 0.848302
v -0.594027 0.144205 1.210596
v 0.620000 0.144205 1.184623
v 0.594027 0.144205 0.822330
v 0.620000 0.144205 -0.864417
v 0.594027 0.144205 -1.226711
v -0.620000 0.144205 -1.200738
v -0.594027 0.144205 -0.838444
v -0.727152 0.144205 1.291776
v -0.702267 0.144205 1.322814
v -0.701179 0.144205 0.715177
v -0.727152 0.144205 0.741150
v -0.727152 0.144205 -0.757264
v -0.701179 0.144205 -0.731292
v -0.702267 0.144205 -1.338928
v -0.727152 0.144205 -1.307890
v 0.727152 0.144205 -1.307890
v 0.702267 0.144205 -1.338928
v 0.701179 0.144205 -0.731292
v 0.727152 0.144205 -0.757264
v 0.727152 0.144205 0.741150
v 0.701179 0.144205 0.715177
v 0.702267 0.144205 1.322814
v 0.727152 0.144205 1.291776
v -0.754022 0.053618 -1.334760
v -0.728049 0.053618 -0.704422
v -0.754022 0.053618 0.714280
v -0.728648 0.053618 1.350164
v 0.754022 0.053618 1.318646
v 0.728049 0.053618 0.688307
v 0.754022 0.053618 -0.730394
v 0.728648 0.053618 -1.366278
v -0.868916 -0.005023 -1.439337
v -0.844929 -0.005025 -1.473200
v -0.845967 -0.005126 -0.586504
v -0.872294 -0.005126 -0.612475
v -0.872294 -0.005126 0.596360
v -0.845967 -0.005126 0.570390
v -0.844929 -0.005025 1.457085
v -0.868916 -0.005023 1.423223
v 0.868925 -0.005228 1.423223
v 0.844939 -0.005226 1.457086
v 0.845967 -0.005126 0.570390
v 0.872294 -0.005126 0.596360
v 0.872294 -0.005126 -0.612475
v 0.845967 -0.005126 -0.586504
v 0.844939 -0.005226 -1.473200
v 0.868926 -0.005229 -1.439337
v -0.860292 0.053720 1.410377
v -0.836355 0.053717 1.449938
v -0.837991 0.053618 0.578366
v -0.864306 0.053618 0.604324
v -0.864306 0.053618 -0.620439
v -0.837991 0.053618 -0.594480
v -0.836355 0.053717 -1.466052
v -0.860292 0.053720 -1.432252
v 0.860287 0.053516 -1.432252
v 0.836351 0.053519 -1.466052
v 0.837991 0.053618 -0.594480
v 0.864306 0.053618 -0.620439
v 0.864306 0.053618 0.604325
v 0.837991 0.053618 0.578366
v 0.836351 0.053519 1.449938
v 0.860287 0.053516 1.416138
v 0.620000 0.761874 0.848302
v 0.620000 0.761874 1.184623
v 0.594027 0.761874 1.210596
v 0.500000 0.761874 1.210596
v -0.500000 0.761874 1.210596
v -0.594027 0.761874 1.210596
v -0.620000 0.761874 1.184623
v -0.620000 0.761874 0.848302
v -0.594027 0.761874 0.822330
v -0.500000 0.761874 0.822330
v -0.500000 0.761874 -0.838444
v -0.594027 0.761874 -0.838444
v -0.620000 0.761874 -0.864417
v -0.620000 0.761874 -1.200738
v -0.594027 0.761874 -1.226711
v -0.500000 0.761874 -1.226711
v 0.500000 0.761874 -1.226711
v 0.594027 0.761874 -1.226711
v 0.620000 0.761874 -1.200738
v 0.620000 0.761874 -0.864417
v 0.594027 0.761874 -0.838444
v 0.500000 0.761874 -0.838444
v 0.500000 0.761874 0.822330
v 0.594027 0.761874 0.822330
v 0.500000 0.994875 1.270867
v -0.500000 0.994875 1.270867
v -0.617089 0.994875 1.266280
v -0.675684 0.994875 1.207685
v -0.675684 0.994874 0.825240
v -0.617089 0.994874 0.766646
v -0.542618 0.994874 -0.783851
v -0.617089 0.994874 -0.782760
v -0.675684 0.994874 -0.841355
v -0.675684 0.994874 -1.223800
v -0.617089 0.994874 -1.282394
v -0.500000 0.994874 -1.286981
v 0.500000 0.994874 -1.286981
v 0.617089 0.994874 -1.282394
v 0.675684 0.994874 -1.223800
v 0.675684 0.994874 -0.841355
v 0.617094 0.994874 -0.789808
v 0.542618 0.994874 -0.783852
v 0.542618 0.994874 0.767737
v 0.617089 0.994874 0.766645
v 0.675684 0.994874 0.825240
v 0.652775 0.950370 1.175006
v 0.594180 0.950370 1.233600
v 0.675684 0.784377 1.207685
v 0.675684 0.784377 0.825240
v 0.617089 0.784377 0.766645
v 0.542618 0.784377 0.767737
v 0.542618 0.784377 -0.783852
v 0.617094 0.784377 -0.789808
v 0.675682 0.784377 -0.841350
v 0.675684 0.784376 -1.223800
v 0.617089 0.784376 -1.282394
v 0.500000 0.784376 -1.286981
v -0.500000 0.784376 -1.286981
v -0.617089 0.784376 -1.282394
v -0.675684 0.784376 -1.223800
v -0.675684 0.784377 -0.841355
v -0.617094 0.784377 -0.782762
v -0.542618 0.784377 -0.783851
v -0.617089 0.784377 0.766646
v -0.675684 0.784377 0.825240
v -0.675684 0.784377 1.207685
v -0.617089 0.784377 1.266280
v -0.500000 0.784377 1.270867
v 0.500000 0.784377 1.270867
v 0.617089 0.784377 1.266280
v -0.413276 0.744871 1.210596
v -0.413276 0.167746 1.210596
v 0.413276 0.167746 1.210596
v 0.413276 0.744871 1.210596
v 0.413276 0.744871 -1.226711
v 0.413276 0.167746 -1.226711
v -0.413276 0.167746 -1.226711
v -0.413276 0.744871 -1.226711
v -0.390829 0.728174 1.165481
v -0.390829 0.190193 1.165481
v 0.390829 0.190193 1.165481
v 0.390829 0.728174 1.165481
v 0.390829 0.728174 -1.176711
v 0.390829 0.190193 -1.176710
v -0.390829 0.190193 -1.176710
v -0.390829 0.728174 -1.176711
v 0.500000 0.106205 1.400133
v -0.500000 0.106205 1.400133
v -0.634022 0.106205 0.688307
v -0.634022 0.106205 -0.704422
v -0.500000 0.106205 -1.416247
v 0.500000 0.106205 -1.416247
v 0.634022 0.106205 -0.704421
v 0.634022 0.106205 0.688307
v -0.754022 0.106281 1.316234
v -0.728648 0.106205 1.350164
v -0.728049 0.106205 0.688307
v -0.754022 0.106205 0.714280
v -0.754022 0.106205 -0.730394
v -0.728049 0.106205 -0.704422
v -0.728648 0.106205 -1.366278
v -0.754022 0.106205 -1.334760
v 0.754022 0.106205 -1.334760
v 0.728648 0.106205 -1.366278
v 0.728049 0.106205 -0.704421
v 0.754022 0.106205 -0.730394
v 0.754022 0.106205 0.714280
v 0.728049 0.106205 0.688307
v 0.728648 0.106205 1.350164
v 0.754022 0.106205 1.318646
v 0.500000 0.139983 1.383244
v 0.500000 0.127316 1.395910
v -0.500000 0.139983 1.383244
v -0.500000 0.127316 1.395910
v -0.622080 0.139982 0.700249
v -0.631037 0.127316 0.691293
v -0.622080 0.139982 -0.716364
v -0.631037 0.127316 -0.707407
v -0.500000 0.139982 -1.399358
v -0.500000 0.127316 -1.412024
v 0.500000 0.139982 -1.399358
v 0.500000 0.127316 -1.412024
v 0.622080 0.139982 -0.716364
v 0.631037 0.127316 -0.707407
v 0.622080 0.139982 0.700249
v 0.631037 0.127316 0.691293
v -0.742080 0.139991 1.306436
v -0.751037 0.127350 1.314589
v -0.716923 0.139983 1.338008
v -0.725717 0.127316 1.347125
v -0.716107 0.139982 0.700249
v -0.725064 0.127316 0.691293
v -0.742080 0.139982 0.726222
v -0.751037 0.127316 0.717266
v -0.742080 0.139982 -0.742337
v -0.751037 0.127316 -0.733380
v -0.716107 0.139982 -0.716364
v -0.725064 0.127316 -0.707407
v -0.716923 0.139982 -1.354122
v -0.725717 0.127316 -1.363239
v -0.742080 0.139982 -1.322818
v -0.751037 0.127316 -1.331774
v 0.742080 0.139982 -1.322818
v 0.751037 0.127316 -1.331774
v 0.716923 0.139982 -1.354122
v 0.725717 0.127316 -1.363239
v 0.716107 0.139982 -0.716364
v 0.725064 0.127316 -0.707407
v 0.742080 0.139982 -0.742337
v 0.751037 0.127316 -0.733380
v 0.742080 0.139982 0.726222
v 0.751037 0.127316 0.717266
v 0.716107 0.139982 0.700249
v 0.725064 0.127316 0.691293
v 0.716923 0.139983 1.338008
v 0.725717 0.127316 1.347125
v 0.742080 0.139983 1.306704
v 0.751037 0.127316 1.315660
v 0.517905 0.042338 1.506196
v -0.517905 0.042338 1.506196
v -0.751940 0.042338 0.570390
v -0.751940 0.042338 -0.586504
v -0.517905 0.042339 -1.522310
v 0.517905 0.042339 -1.522310
v 0.751940 0.042338 -0.586504
v 0.751940 0.042338 0.570390
v -0.868922 0.042495 1.418563
v -0.844935 0.042438 1.457085
v -0.845967 0.042338 0.570390
v -0.872294 0.042338 0.596360
v -0.872294 0.042338 -0.612475
v -0.845967 0.042338 -0.586504
v -0.844935 0.042438 -1.473200
v -0.868922 0.042441 -1.439337
v 0.868920 0.042235 -1.439337
v 0.844933 0.042238 -1.473200
v 0.845967 0.042338 -0.586504
v 0.872294 0.042338 -0.612475
v 0.872294 0.042338 0.596360
v 0.845967 0.042338 0.570390
v 0.844933 0.042238 1.457086
v 0.868920 0.042235 1.423223
v 0.517602 0.050797 1.503499
v -0.517602 0.050797 1.503499
v -0.749946 0.050798 0.572384
v -0.749946 0.050798 -0.588498
v -0.517602 0.050799 -1.519613
v 0.517602 0.050799 -1.519613
v 0.749946 0.050798 -0.588498
v 0.749946 0.050798 0.572384
v -0.866765 0.050914 1.415967
v -0.842791 0.050898 1.455298
v -0.843973 0.050798 0.572384
v -0.870297 0.050798 0.598351
v -0.870297 0.050798 -0.614466
v -0.843973 0.050798 -0.588498
v -0.842791 0.050898 -1.471413
v -0.866765 0.050901 -1.437566
v 0.866761 0.050695 -1.437566
v 0.842787 0.050698 -1.471413
v 0.843973 0.050798 -0.588498
v 0.870297 0.050798 -0.614466
v 0.870297 0.050798 0.598352
v 0.843973 0.050798 0.572384
v 0.842787 0.050698 1.455298
v 0.866761 0.050695 1.421451
v 0.620000 0.456517 1.118603
v 0.620000 0.459975 0.918921
v 0.620000 0.556517 0.919767
v 0.620000 0.556517 1.119688
v 0.470000 0.456517 1.118603
v 0.470000 0.459975 0.918921
v 0.470000 0.556517 0.919767
v 0.470000 0.556517 1.119688
v 0.542618 0.994874 -0.446355
v 0.500168 1.018262 -0.436111
v 0.116076 1.018262 -0.285322
v 0.360350 1.018262 -0.359090
v 0.500168 1.018262 -0.394204
v 0.542618 0.994874 -0.422882
v 0.542618 0.801941 -0.436862
v 0.513941 0.964278 -0.425865
v 0.471491 0.987666 -0.415620
v 0.151411 1.018262 -0.297047
v 0.360350 1.018262 -0.367399
v 0.500168 1.018262 -0.412544
v 0.536609 0.998185 -0.422056
v 0.542618 0.802312 -0.434697
v 0.588372 1.018262 1.194513
v 0.570866 1.018262 1.222479
v 0.534558 0.994875 1.269071
v 0.557308 0.942015 1.268776
v 0.617089 0.861497 1.266280
v 0.675684 0.892587 1.207685
v 0.675684 0.967036 1.118607
v 0.675684 0.994874 1.101543
v 0.632400 1.018262 1.144123
v 0.605908 1.018262 1.172228
v 0.506344 0.149602 -0.437919
v 0.506344 0.149602 -0.268080
v 0.613350 0.149602 -0.268080
v 0.628277 0.145380 -0.268080
v 0.637234 0.132713 -0.268080
v 0.636076 0.111602 -0.268080
v 0.636076 0.059015 -0.268080
v 0.750161 0.059015 -0.268080
v 0.756143 0.056195 -0.268080
v 0.758137 0.047736 -0.268080
v 0.758137 -0.006679 -0.268080
v 0.758137 -0.006679 -0.437919
v 0.758137 0.047736 -0.437919
v 0.756143 0.056195 -0.437919
v 0.750161 0.059015 -0.437919
v 0.636076 0.059015 -0.437919
v 0.636076 0.111602 -0.437919
v 0.637234 0.132713 -0.437919
v 0.628277 0.145380 -0.437919
v 0.613350 0.149602 -0.437919
v 0.500000 0.144205 -0.262998
v 0.500000 0.144205 -0.443001
v 0.634022 0.106205 -0.443001
v 0.634022 0.106205 -0.262998
v 0.634022 0.053618 -0.443001
v 0.634022 0.053618 -0.262998
v 0.751940 -0.005126 -0.262998
v 0.751940 -0.005126 -0.443001
v 0.751940 0.042338 -0.443001
v 0.751940 0.042338 -0.262998
v 0.607152 0.144205 -0.443001
v 0.607152 0.144205 -0.262998
v 0.631037 0.127316 -0.443001
v 0.631037 0.127316 -0.262998
v 0.622080 0.139982 -0.443001
v 0.622080 0.139983 -0.262998
v 0.743964 0.053618 -0.443001
v 0.743964 0.053618 -0.262998
v 0.749946 0.050798 -0.443001
v 0.749946 0.050798 -0.262998
v 0.506344 0.149602 0.084008
v 0.506344 0.149602 0.243143
v 0.613350 0.149602 0.243143
v 0.628277 0.145380 0.243143
v 0.637234 0.132713 0.243143
v 0.636076 0.111602 0.243143
v 0.636076 0.059015 0.243143
v 0.750161 0.059015 0.243143
v 0.756143 0.056195 0.243143
v 0.758137 0.047736 0.243143
v 0.758137 -0.006679 0.243143
v 0.758137 -0.006679 0.084008
v 0.758137 0.047736 0.084008
v 0.756143 0.056195 0.084008
v 0.750161 0.059015 0.084008
v 0.636076 0.059015 0.084008
v 0.636076 0.111602 0.084008
v 0.637234 0.132713 0.084008
v 0.628277 0.145380 0.084008
v 0.613350 0.149602 0.084008
v 0.500000 0.144205 0.248224
v 0.500000 0.144205 0.078927
v 0.634022 0.106205 0.078927
v 0.634022 0.106205 0.248224
v 0.634022 0.053618 0.078927
v 0.634022 0.053618 0.248224
v 0.751940 -0.005126 0.248224
v 0.751940 -0.005126 0.078927
v 0.751940 0.042338 0.078927
v 0.751940 0.042338 0.248224
v 0.607152 0.144205 0.078927
v 0.607152 0.144205 0.248224
v 0.631037 0.127316 0.078927
v 0.631037 0.127316 0.248224
v 0.622080 0.139982 0.078927
v 0.622080 0.139982 0.248224
v 0.743964 0.053618 0.078927
v 0.743964 0.053618 0.248224
v 0.749946 0.050798 0.078927
v 0.749946 0.050798 0.248224
v 0.500000 0.304461 -0.248591
v 0.500000 0.304461 0.071489
v 0.500000 0.443070 0.266135
v 0.500000 0.443070 -0.466367
v -0.755277 -0.004851 0.081491
v -0.755277 -0.004851 0.248183
v -0.755277 0.044720 0.248183
v -0.755277 0.044720 0.081491
v -0.756362 0.045667 -0.272727
v -0.756362 0.045667 -0.435878
v -0.756362 -0.004895 -0.435878
v -0.756362 -0.004895 -0.272727
v -0.504422 0.147534 -0.272727
v -0.504422 0.147534 -0.435878
v -0.611574 0.147534 -0.435878
v -0.611574 0.147534 -0.272727
v -0.610489 0.146586 0.081491
v -0.610489 0.146586 0.248183
v -0.503337 0.146586 0.248183
v -0.503337 0.146586 0.081491
v -0.638444 0.109534 -0.272727
v -0.638444 0.109534 -0.435878
v -0.634781 0.054295 -0.435878
v -0.634781 0.054295 -0.272727
v -0.635194 0.054170 0.081491
v -0.635194 0.054170 0.248183
v -0.637359 0.108586 0.248183
v -0.637359 0.108586 0.081491
v -0.748386 0.056947 -0.435878
v -0.748386 0.056947 -0.272727
v -0.747300 0.056000 0.081491
v -0.747300 0.056000 0.248183
v -0.635459 0.130645 -0.272727
v -0.635459 0.130645 -0.435878
v -0.634373 0.129698 0.248183
v -0.634373 0.129698 0.081491
v -0.626502 0.143312 -0.272727
v -0.626502 0.143312 -0.435878
v -0.625417 0.142364 0.248183
v -0.625417 0.142364 0.081491
v -0.754368 0.054127 -0.272727
v -0.754368 0.054127 -0.435878
v -0.753282 0.053180 0.248183
v -0.753282 0.053180 0.081491
v -0.500000 0.144205 0.252522
v -0.500000 0.144205 0.077152
v -0.607152 0.144205 0.077152
v -0.622080 0.139982 0.077152
v -0.631037 0.127316 0.077152
v -0.634022 0.106205 0.077152
v -0.634022 0.053618 0.077152
v -0.743964 0.053618 0.077152
v -0.749946 0.050798 0.077152
v -0.751940 0.042338 0.077152
v -0.751940 -0.005126 0.077152
v -0.751940 -0.005126 0.252522
v -0.751940 0.042338 0.252522
v -0.749946 0.050798 0.252522
v -0.743964 0.053618 0.252522
v -0.634022 0.053618 0.252522
v -0.634022 0.106205 0.252522
v -0.631037 0.127316 0.252522
v -0.622080 0.139982 0.252522
v -0.607152 0.144205 0.252522
v -0.500000 0.144205 -0.268198
v -0.500000 0.144205 -0.440407
v -0.607152 0.144205 -0.440407
v -0.622080 0.139982 -0.440407
v -0.631037 0.127316 -0.440407
v -0.634022 0.106205 -0.440407
v -0.634022 0.053618 -0.440407
v -0.743964 0.053618 -0.440407
v -0.749946 0.050798 -0.440407
v -0.751940 0.042338 -0.440407
v -0.751940 -0.005126 -0.440407
v -0.751940 -0.005126 -0.268198
v -0.751940 0.042338 -0.268198
v -0.749946 0.050798 -0.268198
v -0.743964 0.053618 -0.268198
v -0.634022 0.053618 -0.268198
v -0.634022 0.106205 -0.268198
v -0.631037 0.127316 -0.268198
v -0.622080 0.139982 -0.268198
v -0.607152 0.144205 -0.268198
v -0.542618 0.784377 0.595338
v -0.542618 0.784377 0.767737
v -0.542618 0.994874 0.767737
v -0.542618 0.994874 0.595338
v -0.542618 0.994874 0.241588
v -0.500168 1.018262 0.810447
v -0.500168 1.018262 0.628531
v -0.500168 1.018262 0.239371
v -0.166723 1.018262 0.628531
v -0.166723 1.018262 0.221435
v -0.491389 1.018262 0.509300
v -0.542618 0.969278 0.376232
v -0.523656 1.000319 0.575986
v -0.518091 1.005875 0.580933
v -0.533038 0.981756 0.376235
v -0.498770 1.008809 0.399848
v -0.491707 1.017068 0.399908
v -0.518701 1.004143 0.283217
v -0.524006 0.998439 0.286990
v -0.503592 1.005427 0.508461
v -0.532807 0.983353 0.497259
v -0.542618 0.970188 0.497783
v -0.329056 1.018262 0.544721
v -0.329215 1.017665 0.346104
v -0.500000 0.761874 0.587304
v -0.542618 0.784377 0.595339
v -0.542618 0.784377 0.498491
v -0.500000 0.761874 0.492776
v -0.542618 0.784377 0.498491
v -0.500000 0.761874 0.369701
v -0.542618 0.784377 0.373930
v -0.500000 0.761874 0.249827
v -0.542618 0.784377 0.250541
vn -0.2881 0.3551 -0.8893
vn -0.3013 0.3207 -0.8980
vn -0.2869 0.3582 -0.8885
vn -0.0000 -0.0000 1.0000
vn -0.0000 -0.0000 -1.0000
vn -0.0000 1.0000 -0.0000
vn 1.0000 0.0001 -0.0041
vn 1.0000 -0.0000 -0.0041
vn 0.7348 0.5086 0.4488
vn 0.8423 0.3171 0.4358
vn 0.8643 0.2628 0.4288
vn -1.0000 0.0003 0.0041
vn -1.0000 -0.0000 0.0041
vn -1.0000 -0.0000 -0.0000
vn 0.1485 -0.0000 -0.9889
vn 0.0797 -0.0000 0.9968
vn 0.7817 0.3181 0.5365
vn 0.7693 0.3230 0.5513
vn 0.8066 0.3074 0.5049
vn 0.6119 0.3285 0.7195
vn 0.6003 0.3591 0.7146
vn 0.6325 0.2682 0.7267
vn -0.1485 -0.0000 0.9889
vn 0.0146 -0.0000 -0.9999
vn -0.0391 -0.0000 -0.9992
vn 1.0000 -0.0000 -0.0000
vn 0.2135 -0.0000 0.9769
vn -0.2135 -0.0000 -0.9769
vn 0.2135 -0.0000 -0.9769
vn -0.2135 -0.0000 0.9769
vn 1.0000 -0.0000 0.0041
vn 1.0000 0.0001 0.0041
vn -1.0000 -0.0001 -0.0041
vn -1.0000 -0.0000 -0.0041
vn 0.1485 -0.0000 0.9889
vn -0.1485 -0.0000 -0.9889
vn 0.0001 1.0000 -0.0001
vn 0.0001 1.0000 0.0001
vn 0.0007 1.0000 -0.0002
vn 0.0004 1.0000 -0.0004
vn 0.0008 1.0000 -0.0002
vn 0.0004 1.0000 0.0005
vn 0.0007 1.0000 0.0002
vn 0.0008 1.0000 0.0002
vn 0.0004 1.0000 -0.0005
vn 0.8160 0.0001 -0.5780
vn 0.6605 -0.0000 0.7508
vn 0.5566 0.4814 0.6771
vn 0.5576 0.4842 0.6742
vn 0.5847 0.5624 0.5847
vn 0.7023 -0.0000 -0.7119
vn -0.8320 0.0250 0.5542
vn -0.8339 0.0281 0.5512
vn -0.8477 0.0517 0.5279
vn -0.7071 -0.0000 -0.7071
vn -0.7023 -0.0000 0.7119
vn -0.7071 -0.0000 0.7071
vn 0.7789 -0.0000 0.6271
vn 0.7071 -0.0000 -0.7071
vn 0.7071 -0.0000 0.7071
vn -0.7789 -0.0000 -0.6271
vn -0.8160 -0.0001 -0.5780
vn -0.7023 -0.0000 -0.7119
vn -0.8156 -0.0204 0.5783
vn -0.8126 -0.0161 0.5827
vn -0.8261 -0.0358 0.5623
vn 0.8160 0.0001 0.5780
vn 0.7023 -0.0000 0.7119
vn 0.7789 -0.0000 -0.6271
vn -0.0210 0.1165 -0.9930
vn 0.0320 0.0672 -0.9972
vn -0.0545 0.1474 -0.9876
vn 0.0391 -0.0000 -0.9992
vn -0.0147 -0.0000 -0.9999
vn -0.0391 -0.0000 0.9992
vn 0.0146 -0.0000 0.9999
vn 0.0003 0.9001 0.4358
vn -0.0054 0.8955 0.4450
vn 0.0141 0.8970 0.4418
vn -0.0135 0.8884 0.4589
vn -0.0000 0.9004 0.4352
vn -0.3642 0.8591 0.3596
vn -0.3641 0.8598 0.3581
vn -0.3645 0.8569 0.3645
vn -0.4754 0.8798 -0.0000
vn -0.3642 0.8591 -0.3596
vn -0.3641 0.8598 -0.3581
vn -0.3635 0.8636 -0.3494
vn 0.0044 0.8798 -0.4753
vn 0.0020 0.8784 -0.4780
vn 0.0069 0.8814 -0.4724
vn 0.0044 0.8809 0.4733
vn 0.0020 0.8794 0.4760
vn -0.0000 0.8782 0.4783
vn -0.3631 0.8600 0.3586
vn -0.3630 0.8606 0.3572
vn -0.3634 0.8579 0.3634
vn -0.3631 0.8600 -0.3586
vn -0.3630 0.8606 -0.3572
vn -0.3625 0.8643 -0.3488
vn -0.0134 0.8893 -0.4570
vn -0.0057 0.8963 -0.4434
vn -0.0182 0.8849 -0.4654
vn -0.0000 0.9012 -0.4335
vn 0.0056 0.8964 -0.4431
vn 0.0134 0.8893 -0.4570
vn 0.3631 0.8600 -0.3586
vn 0.3630 0.8606 -0.3572
vn 0.3634 0.8579 -0.3634
vn 0.4754 0.8798 -0.0000
vn 0.3283 0.8604 0.3898
vn 0.3263 0.8613 0.3896
vn 0.3441 0.8536 0.3911
vn 0.0344 0.8878 0.4589
vn 0.0322 0.8890 0.4567
vn 0.0369 0.8864 0.4614
vn -0.1303 0.2061 -0.9698
vn -0.1288 0.2065 -0.9699
vn -0.1410 0.2031 -0.9689
vn -0.0044 0.8798 -0.4753
vn -0.0020 0.8784 -0.4780
vn -0.0000 0.8771 -0.4803
vn 0.3642 0.8591 -0.3596
vn 0.3641 0.8598 -0.3581
vn 0.3645 0.8569 -0.3645
vn 0.7095 0.4644 0.5301
vn 0.7184 0.4467 0.5333
vn 0.7441 0.3908 0.5418
vn 0.6230 0.4754 0.6212
vn 0.6232 0.4773 0.6195
vn 0.6236 0.4803 0.6168
vn 0.7155 0.3452 0.6073
vn 0.7279 0.3468 0.5915
vn 0.8272 0.3554 0.4354
vn 0.3747 -0.9272 -0.0000
vn 0.2649 -0.9271 -0.2650
vn 0.2649 -0.9271 -0.2649
vn -0.0031 -0.9256 -0.3786
vn -0.0022 -0.9253 -0.3793
vn -0.0055 -0.9263 -0.3766
vn 0.4669 -0.8843 -0.0000
vn 0.0185 -0.9181 0.3959
vn 0.0120 -0.9204 0.3907
vn -0.0000 -0.9245 0.3811
vn 0.2673 -0.9196 0.2878
vn 0.2654 -0.9202 0.2879
vn 0.2869 -0.9140 0.2869
vn 0.2649 -0.9272 -0.2649
vn 0.0100 -0.9316 -0.3634
vn 0.0026 -0.9355 -0.3534
vn 0.0145 -0.9291 -0.3695
vn -0.0000 -0.9368 -0.3498
vn -0.0100 -0.9316 -0.3634
vn -0.0026 -0.9355 -0.3534
vn -0.2649 -0.9272 -0.2649
vn -0.3747 -0.9272 -0.0000
vn -0.2649 -0.9272 0.2649
vn -0.2650 -0.9272 0.2649
vn 0.0031 -0.9256 0.3786
vn 0.0022 -0.9253 0.3793
vn 0.0055 -0.9263 0.3766
vn -0.4669 -0.8843 -0.0000
vn 0.0031 -0.9256 -0.3786
vn 0.0022 -0.9253 -0.3793
vn -0.0000 -0.9245 -0.3811
vn -0.2649 -0.9271 -0.2650
vn -0.2649 -0.9271 0.2649
vn -0.2649 -0.9271 0.2650
vn -0.0100 -0.9316 0.3634
vn -0.0026 -0.9355 0.3534
vn -0.0145 -0.9291 0.3695
vn -0.0000 -0.9368 0.3498
vn 0.0100 -0.9316 0.3634
vn 0.0026 -0.9355 0.3534
vn 0.2649 -0.9271 0.2649
vn 0.0005 1.0000 0.0004
vn 0.0005 1.0000 -0.0004
vn -0.0002 -1.0000 0.0001
vn -0.0000 -1.0000 0.0001
vn -0.0003 -1.0000 0.0001
vn -0.0000 -1.0000 -0.0001
vn -0.0002 -1.0000 -0.0001
vn -0.0003 -1.0000 -0.0001
vn -0.0000 -1.0000 -0.0000
vn -0.0001 -1.0000 -0.0000
vn 0.8953 -0.0000 0.4455
vn -0.0000 0.8953 0.4455
vn -0.8953 -0.0000 0.4455
vn -0.0000 -0.9378 0.3471
vn -0.9123 -0.0000 -0.4096
vn -0.0000 0.9123 -0.4096
vn 0.9123 -0.0000 -0.4096
vn -0.0000 -0.9485 -0.3167
vn -0.2075 0.1904 0.9595
vn -0.2103 0.1692 0.9629
vn -0.2105 0.1679 0.9631
vn -0.9901 0.1403 -0.0000
vn -0.9902 0.1400 -0.0000
vn -0.0000 0.1400 -0.9901
vn -0.0000 0.1400 0.9902
vn -0.2103 0.1692 -0.9629
vn -0.2075 0.1904 -0.9595
vn -0.2105 0.1679 -0.9631
vn 0.2075 0.1904 -0.9595
vn 0.2103 0.1692 -0.9629
vn 0.2105 0.1679 -0.9631
vn 0.9902 0.1400 -0.0000
vn -0.0000 0.1400 0.9901
vn 0.2103 0.1692 0.9629
vn 0.2075 0.1904 0.9595
vn 0.2105 0.1679 0.9631
vn -0.1547 0.9802 0.1239
vn -0.1546 0.9802 0.1236
vn -0.1548 0.9801 0.1241
vn -0.1387 0.9806 -0.1387
vn -0.1387 0.9806 0.1387
vn -0.1540 0.9803 -0.1237
vn -0.1540 0.9803 -0.1235
vn -0.1539 0.9803 -0.1234
vn 0.1540 0.9803 -0.1235
vn 0.1540 0.9803 -0.1237
vn 0.1539 0.9803 -0.1234
vn 0.1387 0.9806 0.1387
vn 0.1387 0.9806 -0.1387
vn 0.1540 0.9803 0.1237
vn 0.1539 0.9803 0.1235
vn 0.1539 0.9804 0.1234
vn -0.0000 0.1962 0.9806
vn -0.0000 0.1962 -0.9806
vn -0.1467 0.6969 0.7020
vn -0.1604 0.6499 0.7429
vn -0.1610 0.6477 0.7447
vn -0.0387 0.9795 0.1978
vn -0.0465 0.9735 0.2238
vn -0.0469 0.9732 0.2251
vn -0.8159 0.5781 -0.0000
vn -0.8165 0.5774 -0.0000
vn -0.2717 0.9624 -0.0000
vn -0.2722 0.9622 -0.0000
vn -0.0000 0.5773 -0.8165
vn -0.0000 0.9622 -0.2722
vn -0.0000 0.5774 0.8165
vn -0.0000 0.9622 0.2722
vn -0.1604 0.6499 -0.7429
vn -0.1467 0.6969 -0.7020
vn -0.1609 0.6478 -0.7447
vn -0.0465 0.9735 -0.2238
vn -0.0387 0.9795 -0.1979
vn -0.0470 0.9732 -0.2252
vn 0.1467 0.6969 -0.7020
vn 0.1604 0.6499 -0.7429
vn 0.1609 0.6478 -0.7447
vn 0.0387 0.9795 -0.1979
vn 0.0465 0.9735 -0.2238
vn 0.0470 0.9732 -0.2252
vn 0.8165 0.5774 -0.0000
vn 0.2722 0.9622 -0.0000
vn 0.2722 0.9623 -0.0000
vn 0.1604 0.6499 0.7429
vn 0.1467 0.6969 0.7020
vn 0.1610 0.6477 0.7447
vn 0.0465 0.9735 0.2238
vn 0.0387 0.9795 0.1978
vn 0.0469 0.9732 0.2251
vn -0.5640 0.6944 0.4470
vn -0.5617 0.7005 0.4403
vn -0.5652 0.6911 0.4505
vn -0.7813 0.1688 0.6009
vn -0.7838 0.1831 0.5935
vn -0.7792 0.1578 0.6066
vn -0.5000 0.7071 -0.5000
vn -0.6934 0.1961 -0.6934
vn -0.5000 0.7071 0.5000
vn -0.6934 0.1961 0.6934
vn -0.5530 0.7045 -0.4448
vn -0.5529 0.7048 -0.4445
vn -0.5528 0.7050 -0.4442
vn -0.7641 0.1947 -0.6150
vn -0.7641 0.1949 -0.6150
vn -0.7641 0.1950 -0.6149
vn 0.5529 0.7048 -0.4445
vn 0.5530 0.7045 -0.4448
vn 0.5528 0.7050 -0.4442
vn 0.7641 0.1949 -0.6150
vn 0.7641 0.1947 -0.6150
vn 0.7641 0.1950 -0.6149
vn 0.5000 0.7071 0.5000
vn 0.6934 0.1961 0.6934
vn 0.5000 0.7071 -0.5000
vn 0.6934 0.1961 -0.6934
vn 0.5530 0.7045 0.4449
vn 0.5529 0.7048 0.4445
vn 0.5528 0.7050 0.4443
vn 0.7641 0.1947 0.6150
vn 0.7641 0.1949 0.6150
vn 0.7641 0.1950 0.6149
vn -0.0000 0.7071 0.7071
vn -0.0000 0.9806 0.1961
vn -0.0000 0.7071 -0.7071
vn -0.0000 0.9806 -0.1962
vn -0.1396 0.3042 0.9423
vn -0.1441 0.2404 0.9599
vn -0.1441 0.2393 0.9602
vn -0.9684 0.2492 0.0039
vn -0.9734 0.2290 0.0042
vn -0.9684 0.2493 0.0039
vn -0.0000 0.2294 -0.9733
vn -0.0000 0.2294 0.9733
vn -0.9734 0.2290 -0.0039
vn -0.9688 0.2477 -0.0041
vn -0.9735 0.2289 -0.0039
vn -0.1441 0.2403 -0.9599
vn -0.1396 0.3042 -0.9423
vn -0.1441 0.2393 -0.9602
vn 0.1398 0.3042 -0.9423
vn 0.1442 0.2404 -0.9599
vn 0.1443 0.2394 -0.9601
vn 0.9688 0.2480 -0.0042
vn 0.9734 0.2290 -0.0040
vn 0.9735 0.2288 -0.0040
vn 0.9734 0.2290 0.0040
vn 0.9688 0.2479 0.0042
vn 0.9735 0.2288 0.0040
vn 0.1442 0.2405 0.9599
vn 0.1398 0.3042 0.9423
vn 0.1443 0.2395 0.9601
vn -0.2706 0.9486 0.1640
vn -0.2743 0.9470 0.1674
vn -0.2701 0.9488 0.1635
vn -0.2221 0.9487 -0.2251
vn -0.2221 0.9487 0.2251
vn -0.2610 0.9475 -0.1849
vn -0.2609 0.9475 -0.1849
vn -0.2609 0.9475 -0.1848
vn 0.2611 0.9474 -0.1848
vn 0.2612 0.9474 -0.1849
vn 0.2221 0.9487 0.2251
vn 0.2221 0.9487 -0.2251
vn 0.2612 0.9474 0.1849
vn 0.2611 0.9474 0.1848
vn -0.0000 0.3038 0.9527
vn -0.0000 0.3037 -0.9528
vn -0.0460 0.9445 0.3253
vn -0.0599 0.9118 0.4062
vn -0.0601 0.9114 0.4072
vn -0.3967 0.9180 0.0019
vn -0.4272 0.9042 0.0017
vn -0.4273 0.9041 0.0017
vn -0.0000 0.9045 -0.4264
vn -0.0000 0.9045 0.4264
vn -0.4272 0.9042 -0.0017
vn -0.3983 0.9173 -0.0019
vn -0.4273 0.9041 -0.0017
vn -0.0599 0.9118 -0.4062
vn -0.0460 0.9445 -0.3252
vn -0.0601 0.9114 -0.4071
vn 0.0466 0.9445 -0.3251
vn 0.0604 0.9119 -0.4059
vn 0.0606 0.9115 -0.4069
vn 0.3983 0.9173 -0.0021
vn 0.4274 0.9041 -0.0020
vn 0.4275 0.9040 -0.0019
vn 0.4274 0.9041 0.0019
vn 0.3983 0.9173 0.0021
vn 0.4275 0.9040 0.0019
vn 0.0604 0.9119 0.4060
vn 0.0466 0.9445 0.3252
vn 0.0606 0.9116 0.4066
vn -0.7994 0.3496 0.4887
vn -0.8058 0.3160 0.5009
vn -0.7983 0.3546 0.4868
vn -0.6662 0.3162 -0.6754
vn -0.6662 0.3162 0.6754
vn -0.7752 0.3124 -0.5491
vn -0.7751 0.3125 -0.5491
vn -0.7751 0.3126 -0.5491
vn 0.7751 0.3127 -0.5490
vn 0.7751 0.3126 -0.5490
vn 0.6662 0.3162 0.6754
vn 0.6662 0.3163 -0.6754
vn 0.6662 0.3162 -0.6754
vn 0.7751 0.3127 0.5490
vn 0.7751 0.3128 0.5490
vn -0.0000 0.9443 0.3291
vn -0.0000 0.9443 -0.3290
vn -0.0000 0.9999 0.0173
vn -0.0000 -0.0088 1.0000
vn -0.0000 0.0108 -0.9999
vn 0.4826 0.8759 -0.0000
vn 0.3572 0.2700 0.8942
vn 0.3603 0.2619 0.8953
vn 0.0107 0.9996 0.0267
vn 0.3599 0.2623 0.8954
vn -0.0000 1.0000 -0.0001
vn 0.4826 0.8758 0.0001
vn 0.9816 0.1672 0.0921
vn 0.5558 0.0419 0.8303
vn 0.9839 0.1759 -0.0298
vn 0.6430 0.4447 0.6236
vn 0.6428 0.4445 0.6238
vn 0.6367 0.4394 0.6337
vn 0.0121 0.8962 0.4435
vn -0.0000 0.8937 0.4486
vn 0.0438 0.0079 0.9990
vn 0.0400 0.0001 0.9992
vn 0.0519 0.0168 0.9985
vn 0.0382 0.0011 0.9993
vn 0.0397 -0.0008 0.9992
vn 0.9985 -0.0548 -0.0000
vn 0.8165 0.5773 -0.0000
vn 0.9733 0.2294 -0.0000
vn 0.4264 0.9045 -0.0000
vn -0.6480 0.7617 -0.0000
vn -0.0000 0.6855 0.7280
vn 0.1617 0.5717 0.8044
vn 0.4310 0.3048 0.8493
vn 0.6948 -0.0098 0.7192
vn 0.8359 0.0931 0.5409
vn 0.6522 -0.0358 0.7572
vn 0.9271 -0.0000 0.3747
vn 0.2387 0.5063 0.8287
vn 0.5576 0.1314 0.8196
vn 0.5577 0.1314 0.8196
vn 0.6341 -0.0000 0.7732
vn -0.2434 -0.9699 -0.0000
vn -0.2431 -0.9700 -0.0000
vn 0.6341 -0.0000 -0.7732
vn 0.5577 0.1314 -0.8196
vn 0.5576 0.1314 -0.8196
vn 0.2387 0.5063 -0.8287
vn -0.0000 0.6855 -0.7280
vn 0.9271 -0.0000 -0.3747
vn 0.6948 -0.0098 -0.7192
vn 0.8359 0.0931 -0.5409
vn 0.8680 0.1227 -0.4812
vn 0.4310 0.3048 -0.8493
vn 0.1617 0.5717 -0.8044
vn -0.0000 0.6855 0.7281
vn 0.1617 0.5716 0.8044
vn 0.4310 0.3047 0.8494
vn 0.6947 -0.0098 0.7192
vn 0.8359 0.0931 0.5410
vn 0.6521 -0.0358 0.7573
vn 0.9271 -0.0000 0.3748
vn 0.2386 0.5062 0.8287
vn 0.5576 0.1314 0.8197
vn 0.6340 -0.0000 0.7733
vn 0.6340 -0.0000 -0.7733
vn 0.5576 0.1314 -0.8197
vn 0.2386 0.5062 -0.8287
vn -0.0000 0.6855 -0.7281
vn 0.9271 -0.0000 -0.3748
vn 0.6947 -0.0098 -0.7192
vn 0.8359 0.0931 -0.5410
vn 0.4310 0.3047 -0.8494
vn 0.1617 0.5716 -0.8044
vn 0.9933 0.1155 -0.0000
vn 0.9924 0.1232 -0.0000
vn 0.2185 0.9758 -0.0000
vn 0.1137 0.9935 -0.0000
vn 0.9975 0.0702 -0.0000
vn 0.9294 0.3691 -0.0000
vn 0.9973 0.0731 -0.0000
vn 0.9117 0.4109 -0.0000
vn 0.5774 0.8165 -0.0000
vn 0.4632 0.8863 -0.0000
vn 0.1374 0.9905 -0.0000
vn 0.0698 0.9976 -0.0000
vn 0.9294 0.3690 -0.0000
vn 0.5773 0.8165 -0.0000
vn -0.9978 -0.0662 -0.0000
vn -0.9992 -0.0398 -0.0000
vn 0.0233 0.9997 -0.0000
vn 0.0163 0.9999 -0.0000
vn -0.9901 0.1400 -0.0000
vn -0.8165 0.5773 -0.0000
vn -0.2721 0.9623 -0.0000
vn -0.9733 0.2294 -0.0000
vn -0.9733 0.2295 -0.0000
vn -0.4264 0.9045 -0.0000
vn 0.5808 0.8140 -0.0000
vn -0.0000 0.8767 -0.4811
vn -0.2190 0.7744 -0.5935
vn -0.2191 0.7744 -0.5935
vn -0.2191 0.7745 -0.5935
vn -0.5935 0.4197 -0.6868
vn -0.5935 0.4197 -0.6867
vn -0.5935 0.4196 -0.6868
vn -0.7588 0.1073 -0.6424
vn -0.7586 0.1072 -0.6426
vn -0.8102 -0.0306 -0.5854
vn -0.9593 -0.0019 -0.2824
vn -0.8007 -0.0319 -0.5983
vn 0.0141 0.8843 -0.4668
vn 0.0004 0.9909 -0.1349
vn -0.0000 0.9920 -0.1262
vn -0.3290 0.6979 -0.6361
vn -0.7327 0.1728 -0.6582
vn -0.7327 0.1727 -0.6583
vn -0.7927 -0.0000 -0.6096
vn -0.0821 -0.9966 -0.0000
vn -0.7927 -0.0000 0.6096
vn -0.7327 0.1728 0.6582
vn -0.7327 0.1727 0.6583
vn -0.3290 0.6979 0.6361
vn 0.0141 0.8843 0.4668
vn 0.0004 0.9909 0.1349
vn 0.0144 0.8811 0.4727
vn -0.8102 -0.0306 0.5854
vn -0.9593 -0.0019 0.2824
vn -0.9654 -0.0000 0.2608
vn -0.7588 0.1073 0.6424
vn -0.5935 0.4197 0.6868
vn -0.5935 0.4197 0.6867
vn -0.2190 0.7744 0.5935
vn -0.2191 0.7745 0.5935
vn -0.2190 0.7744 0.5936
vn -0.0000 0.8767 0.4811
vn 0.6014 0.7989 -0.0000
vn 0.6015 0.7989 -0.0000
vn -0.0000 0.8057 -0.5923
vn -0.0000 0.8058 -0.5923
vn -0.1950 0.6896 -0.6974
vn -0.1951 0.6896 -0.6974
vn -0.5172 0.3657 -0.7738
vn -0.6762 0.0956 -0.7305
vn -0.7482 -0.0468 -0.6619
vn -0.9793 -0.0033 -0.2023
vn -0.7323 -0.0486 -0.6793
vn 0.0187 0.8193 -0.5731
vn 0.0006 0.9870 -0.1609
vn -0.0000 0.9890 -0.1478
vn -0.2895 0.6142 -0.7341
vn -0.6486 0.1529 -0.7456
vn -0.7155 -0.0000 -0.6986
vn -0.0522 -0.9986 -0.0000
vn -0.7155 -0.0000 0.6986
vn -0.6486 0.1529 0.7456
vn -0.2895 0.6142 0.7341
vn 0.0187 0.8193 0.5731
vn 0.0006 0.9870 0.1609
vn 0.0190 0.8144 0.5800
vn -0.7482 -0.0468 0.6619
vn -0.9793 -0.0033 0.2023
vn -0.9862 -0.0000 0.1653
vn -0.6762 0.0956 0.7305
vn -0.5172 0.3657 0.7738
vn -0.1950 0.6896 0.6974
vn -0.1951 0.6896 0.6974
vn -0.0000 0.8057 0.5923
vn -0.0000 0.8058 0.5923
vn -0.9933 0.1155 -0.0000
vn -0.9924 0.1232 -0.0000
vn -0.2185 0.9758 -0.0000
vn -0.1137 0.9935 -0.0000
vn -0.9975 0.0702 -0.0000
vn -0.9294 0.3691 -0.0000
vn -0.9973 0.0731 -0.0000
vn -0.9117 0.4109 -0.0000
vn -0.5774 0.8165 -0.0000
vn -0.4632 0.8863 -0.0000
vn -0.1374 0.9905 -0.0000
vn -0.0698 0.9976 -0.0000
vn -0.5773 0.8165 -0.0000
vn -0.4826 0.8759 -0.0000
vn -0.0010 1.0000 -0.0007
vn -0.6254 0.7698 -0.1276
vn -0.5891 0.8056 -0.0630
vn -0.5944 0.8031 -0.0415
vn -0.6133 0.7898 -0.0079
vn -0.4631 0.8785 -0.1176
vn -0.4829 0.8598 -0.1656
vn -0.5302 0.7945 -0.2960
vn -0.6735 0.7286 -0.1251
vn -0.5211 0.8522 -0.0469
vn -0.5001 0.8652 -0.0368
vn -0.7564 0.6540 -0.0127
vn -0.7268 0.6868 -0.0059
vn -0.7245 0.6892 -0.0054
vn -0.5034 0.8585 0.0981
vn -0.5816 0.7983 0.1564
vn -0.4778 0.8748 0.0797
vn -0.7939 0.6080 -0.0063
vn -0.8012 0.5984 -0.0046
vn -0.7932 0.6090 -0.0065
vn -0.7547 0.6525 -0.0684
vn -0.5004 0.8417 -0.2030
vn -0.8020 0.5963 -0.0353
vn -0.0003 1.0000 0.0034
vn -0.7584 0.6495 0.0541
vn -0.5589 0.8155 0.1499
vn -0.5413 0.8260 0.1570
vn -0.6895 0.7189 0.0881
vn -0.6534 0.7531 0.0769
vn -0.6985 0.7098 0.0910
vn -0.5596 0.8279 0.0378
vn -0.7321 0.6746 0.0946
vn -0.5515 0.8334 0.0353
vn -0.0051 1.0000 -0.0023
vn 0.0015 1.0000 -0.0019
vn 0.0017 1.0000 -0.0000
vn 0.0024 1.0000 -0.0031
vn -0.0005 1.0000 0.0052
vn -0.3026 0.3172 -0.8988
vn 0.7143 0.5370 0.4488
vn 0.7409 0.3333 0.5830
vn 0.5798 0.4086 0.7048
vn 0.5272 0.4097 0.7445
vn -0.8160 -0.0001 0.5780
vn -0.8008 -0.0000 0.5989
vn 0.0385 0.0612 -0.9974
vn -0.0183 0.8839 0.4673
vn -0.3635 0.8636 0.3494
vn -0.3645 0.8569 -0.3645
vn 0.0069 0.8824 0.4704
vn -0.3625 0.8643 0.3488
vn -0.3634 0.8579 -0.3634
vn 0.0182 0.8849 -0.4654
vn 0.3625 0.8643 -0.3488
vn 0.2994 0.8721 0.3871
vn 0.0303 0.8901 0.4548
vn -0.1190 0.2091 -0.9706
vn -0.0069 0.8814 -0.4724
vn 0.3635 0.8636 -0.3494
vn 0.6863 0.5072 0.5213
vn 0.6228 0.4736 0.6228
vn 0.6539 0.3356 0.6780
vn 0.0325 -0.9129 0.4069
vn 0.2537 -0.9233 0.2884
vn -0.0145 -0.9291 -0.3695
vn 0.0055 -0.9263 -0.3766
vn 0.0145 -0.9291 0.3695
vn 0.2649 -0.9271 0.2650
vn 0.0001 -1.0000 0.0001
vn 0.0001 -1.0000 -0.0001
vn -0.2073 0.1919 0.9593
vn -0.2073 0.1919 -0.9593
vn 0.2073 0.1919 -0.9593
vn 0.2073 0.1919 0.9593
vn -0.1545 0.9803 0.1234
vn -0.1541 0.9803 -0.1238
vn 0.1541 0.9803 -0.1238
vn 0.1540 0.9803 0.1238
vn -0.1459 0.6995 0.6996
vn -0.0381 0.9799 0.1960
vn -0.1459 0.6995 -0.6995
vn -0.0381 0.9799 -0.1960
vn 0.1459 0.6995 -0.6995
vn 0.0381 0.9799 -0.1960
vn 0.1459 0.6995 0.6996
vn 0.0381 0.9799 0.1960
vn -0.5605 0.7036 0.4369
vn -0.7855 0.1937 0.5878
vn -0.5531 0.7043 -0.4450
vn -0.7640 0.1946 -0.6151
vn 0.5531 0.7043 -0.4450
vn 0.7640 0.1946 -0.6151
vn 0.5531 0.7043 0.4451
vn 0.7640 0.1946 0.6151
vn -0.1395 0.3053 0.9420
vn -0.9735 0.2288 0.0042
vn -0.9688 0.2479 -0.0041
vn -0.1395 0.3053 -0.9420
vn 0.1397 0.3053 -0.9420
vn 0.9687 0.2481 -0.0042
vn 0.9687 0.2481 0.0042
vn 0.1397 0.3053 0.9419
vn -0.2748 0.9467 0.1679
vn -0.0458 0.9449 0.3241
vn -0.3964 0.9181 0.0019
vn -0.3980 0.9174 -0.0019
vn -0.0458 0.9449 -0.3240
vn 0.0464 0.9448 -0.3243
vn 0.3980 0.9174 -0.0021
vn 0.3980 0.9174 0.0021
vn 0.0464 0.9449 0.3241
vn -0.8067 0.3106 0.5028
vn 0.7751 0.3126 0.5490
vn 0.5515 0.0410 0.8331
vn 0.6497 0.4503 0.6124
vn 0.0391 -0.0000 0.9992
vn 0.8680 0.1227 0.4812
vn 0.5577 0.1315 -0.8196
vn 0.6522 -0.0358 -0.7572
vn 0.6521 -0.0358 -0.7573
vn -0.2190 0.7744 -0.5936
vn -0.9654 -0.0000 -0.2608
vn 0.0144 0.8811 -0.4727
vn -0.0000 0.9920 0.1262
vn -0.8007 -0.0319 0.5983
vn -0.7589 0.1073 0.6424
vn -0.5935 0.4196 0.6868
vn -0.9862 -0.0000 -0.1653
vn 0.0190 0.8144 -0.5800
vn -0.0000 0.9890 0.1478
vn -0.7323 -0.0486 0.6793
vn -0.6388 0.7578 -0.1325
vn -0.6157 0.7879 -0.0092
vn -0.4408 0.8951 -0.0670
vn -0.7121 0.6866 -0.1467
vn -0.7599 0.6499 -0.0135
vn -0.6446 0.7361 0.2065
vn -0.8019 0.5974 -0.0045
vn -0.4674 0.8570 -0.2169
vn -0.7927 0.6086 0.0335
vn -0.6495 0.7566 0.0757
vn -0.7563 0.6460 0.1034
vt 0.563322 0.874503
vt 0.564017 0.895765
vt 0.556337 0.871723
vt 0.845990 0.457131
vt 0.854376 0.283822
vt 0.854376 0.457131
vt 0.865471 0.430956
vt 0.873923 0.256147
vt 0.873923 0.430956
vt 0.358723 0.432169
vt 0.538232 0.362857
vt 0.539979 0.432169
vt 0.358723 0.017738
vt 0.538232 0.087129
vt 0.360470 0.087129
vt 0.873905 0.491879
vt 0.865471 0.631257
vt 0.865452 0.491879
vt 0.593309 0.142898
vt 0.602379 0.149982
vt 0.603399 0.156062
vt 0.854376 0.518180
vt 0.845990 0.655770
vt 0.846008 0.518180
vt 0.785994 0.329479
vt 0.748162 0.394620
vt 0.748162 0.329479
vt 0.873905 0.486132
vt 0.557022 0.364044
vt 0.557022 0.432169
vt 0.785993 0.023676
vt 0.748162 0.010951
vt 0.785993 0.010950
vt 0.581662 0.150279
vt 0.583035 0.155991
vt 0.576963 0.155674
vt 0.569088 0.141877
vt 0.578264 0.143037
vt 0.566238 0.151572
vt 0.854376 0.080390
vt 0.845990 0.063964
vt 0.854376 0.063964
vt 0.846008 0.511875
vt 0.341680 0.087129
vt 0.341680 0.017738
vt 0.271246 0.920179
vt 0.309326 0.932829
vt 0.271246 0.932829
vt 0.341680 0.362857
vt 0.360470 0.362857
vt 0.785994 0.319499
vt 0.748162 0.299540
vt 0.785994 0.299540
vt 0.873924 0.051066
vt 0.865471 0.035331
vt 0.873924 0.035331
vt 0.709540 0.201490
vt 0.604583 0.141189
vt 0.709540 0.141189
vt 0.795446 0.106346
vt 0.804868 0.208136
vt 0.795446 0.208136
vt 0.164319 0.852965
vt 0.053571 0.910114
vt 0.053571 0.852965
vt 0.820805 0.077587
vt 0.830367 0.180624
vt 0.820805 0.180624
vt 0.709540 0.136532
vt 0.604583 0.119673
vt 0.709540 0.119673
vt 0.820805 0.551895
vt 0.830357 0.568344
vt 0.820815 0.568344
vt 0.795446 0.214034
vt 0.804868 0.252860
vt 0.795446 0.252860
vt 0.723636 0.678220
vt 0.612801 0.662230
vt 0.723636 0.662229
vt 0.053571 0.914528
vt 0.164318 0.930505
vt 0.053571 0.930505
vt 0.795446 0.574133
vt 0.804866 0.590160
vt 0.795449 0.590160
vt 0.820805 0.186636
vt 0.830367 0.225752
vt 0.820805 0.225752
vt 0.709033 0.244442
vt 0.604076 0.227583
vt 0.709033 0.227583
vt 0.359803 0.949000
vt 0.333013 0.781453
vt 0.359803 0.781453
vt 0.345452 0.987059
vt 0.359803 0.964754
vt 0.364395 0.969106
vt 0.442797 0.987059
vt 0.428446 0.964754
vt 0.447389 0.982708
vt 0.484913 0.817985
vt 0.508469 0.804363
vt 0.489418 0.822332
vt 0.572561 0.800009
vt 0.587011 0.822340
vt 0.567967 0.804363
vt 0.572561 0.616588
vt 0.599377 0.784386
vt 0.572561 0.784244
vt 0.586985 0.578498
vt 0.572561 0.600824
vt 0.567967 0.596469
vt 0.489419 0.578492
vt 0.503875 0.600824
vt 0.484911 0.582852
vt 0.359803 0.765699
vt 0.345452 0.743394
vt 0.364395 0.761347
vt 0.795446 0.422627
vt 0.820805 0.398622
vt 0.830367 0.546834
vt 0.820805 0.443758
vt 0.830367 0.443758
vt 0.804868 0.569204
vt 0.795446 0.467647
vt 0.804882 0.467647
vt 0.830367 0.437505
vt 0.830367 0.398622
vt 0.804868 0.101393
vt 0.795446 0.085142
vt 0.804868 0.085142
vt 0.804868 0.461658
vt 0.804868 0.422627
vt 0.830367 0.071901
vt 0.820818 0.055878
vt 0.830354 0.055878
vt 0.845990 0.085186
vt 0.854376 0.223231
vt 0.845972 0.223231
vt 0.865490 0.195225
vt 0.873924 0.055846
vt 0.873942 0.195225
vt 0.865471 0.636037
vt 0.873923 0.652135
vt 0.865471 0.652135
vt 0.845990 0.283822
vt 0.854376 0.229063
vt 0.845990 0.660566
vt 0.854376 0.676980
vt 0.845990 0.676980
vt 0.865489 0.200971
vt 0.865471 0.256147
vt 0.347567 0.507717
vt 0.330712 0.678173
vt 0.330712 0.504918
vt 0.345755 0.735779
vt 0.356407 0.713708
vt 0.363002 0.717963
vt 0.492943 0.732040
vt 0.468899 0.717963
vt 0.473494 0.713608
vt 0.577906 0.365940
vt 0.601950 0.351862
vt 0.582498 0.370352
vt 0.714441 0.347608
vt 0.726113 0.369679
vt 0.708866 0.351862
vt 0.723281 0.309274
vt 0.740136 0.138819
vt 0.740136 0.312072
vt 0.726113 0.081213
vt 0.714441 0.103283
vt 0.708866 0.099029
vt 0.577906 0.084951
vt 0.601950 0.099029
vt 0.597355 0.103384
vt 0.492943 0.451050
vt 0.468899 0.465128
vt 0.488351 0.446639
vt 0.356407 0.469382
vt 0.344736 0.447312
vt 0.361983 0.465128
vt 0.428446 0.765699
vt 0.442797 0.743394
vt 0.447389 0.747746
vt 0.865453 0.486132
vt 0.748162 0.023677
vt 0.785994 0.034324
vt 0.748162 0.034324
vt 0.591297 0.131026
vt 0.845990 0.080390
vt 0.854376 0.085186
vt 0.854376 0.511875
vt 0.309326 0.910228
vt 0.309326 0.920179
vt 0.748162 0.319499
vt 0.865471 0.051066
vt 0.865471 0.055846
vt 0.804868 0.574133
vt 0.795446 0.569204
vt 0.164318 0.914528
vt 0.804868 0.214034
vt 0.723636 0.682636
vt 0.612801 0.678220
vt 0.830367 0.551895
vt 0.820805 0.546834
vt 0.604583 0.136532
vt 0.830367 0.186636
vt 0.709033 0.249099
vt 0.604076 0.244442
vt 0.873941 0.200971
vt 0.820805 0.071901
vt 0.830367 0.077587
vt 0.854376 0.660566
vt 0.854376 0.655770
vt 0.795446 0.461658
vt 0.845972 0.229062
vt 0.795446 0.101393
vt 0.804868 0.106346
vt 0.873923 0.636037
vt 0.873923 0.631257
vt 0.820805 0.437505
vt 0.406701 0.543927
vt 0.393612 0.508804
vt 0.418586 0.532467
vt 0.604076 0.309401
vt 0.604076 0.249099
vt 0.604583 0.206147
vt 0.709540 0.223006
vt 0.604583 0.223006
vt 0.612801 0.744248
vt 0.723636 0.760238
vt 0.612801 0.760238
vt 0.164319 0.848552
vt 0.053571 0.832574
vt 0.164319 0.832574
vt 0.604076 0.314058
vt 0.709033 0.330917
vt 0.604076 0.330917
vt 0.309326 0.645593
vt 0.271246 0.815434
vt 0.271246 0.645593
vt 0.557654 0.863626
vt 0.564635 0.866412
vt 0.557492 0.864730
vt 0.785994 0.129343
vt 0.785994 0.099465
vt 0.748162 0.099465
vt 0.271246 0.845273
vt 0.309326 0.845273
vt 0.748162 0.109446
vt 0.748162 0.129343
vt 0.308089 0.537543
vt 0.270707 0.524977
vt 0.308151 0.524977
vt 0.309326 0.835321
vt 0.309326 0.815434
vt 0.748162 0.404601
vt 0.785993 0.417287
vt 0.748162 0.417286
vt 0.604583 0.201490
vt 0.709540 0.206147
vt 0.612801 0.739831
vt 0.723636 0.744248
vt 0.053571 0.848552
vt 0.709033 0.314058
vt 0.271246 0.835321
vt 0.308028 0.547364
vt 0.270707 0.537543
vt 0.785994 0.109446
vt 0.785993 0.404600
vt 0.539979 0.017738
vt 0.360500 0.009589
vt 0.538202 0.009589
vt 0.329281 0.020230
vt 0.339693 0.010362
vt 0.336972 0.082487
vt 0.336972 0.022380
vt 0.329281 0.084637
vt 0.352927 0.094322
vt 0.339693 0.094505
vt 0.352927 0.355625
vt 0.329281 0.365309
vt 0.339693 0.355441
vt 0.336972 0.427532
vt 0.336972 0.367494
vt 0.341680 0.432169
vt 0.329281 0.429717
vt 0.360500 0.440357
vt 0.339693 0.439585
vt 0.538202 0.440357
vt 0.569421 0.429717
vt 0.559009 0.439585
vt 0.561730 0.367494
vt 0.561730 0.427532
vt 0.559010 0.356628
vt 0.569421 0.365309
vt 0.545775 0.355625
vt 0.557022 0.087129
vt 0.545775 0.094322
vt 0.569421 0.084637
vt 0.559009 0.094505
vt 0.591486 0.149448
vt 0.594555 0.156554
vt 0.250984 0.898225
vt 0.261254 0.961046
vt 0.250984 0.957015
vt 0.246193 0.893685
vt 0.261254 0.894194
vt 0.236711 0.884143
vt 0.250447 0.883952
vt 0.236711 0.612924
vt 0.228850 0.893685
vt 0.228850 0.603381
vt 0.246193 0.603381
vt 0.250984 0.598841
vt 0.250448 0.611883
vt 0.261254 0.536021
vt 0.261254 0.602873
vt 0.246193 0.535512
vt 0.250984 0.540052
vt 0.228850 0.524977
vt 0.250447 0.525779
vt 0.044406 0.535512
vt 0.228850 0.535512
vt 0.027063 0.535512
vt 0.044406 0.524977
vt 0.022272 0.540052
vt 0.022809 0.525779
vt 0.022272 0.598841
vt 0.012002 0.536021
vt 0.022808 0.613114
vt 0.012002 0.602872
vt 0.027063 0.603381
vt 0.036545 0.612924
vt 0.044406 0.793612
vt 0.036545 0.793736
vt 0.027063 0.893685
vt 0.036545 0.884143
vt 0.044406 0.893685
vt 0.012002 0.894194
vt 0.022809 0.883952
vt 0.022272 0.957015
vt 0.022272 0.898225
vt 0.027063 0.961554
vt 0.012002 0.961046
vt 0.044406 0.972090
vt 0.022809 0.971288
vt 0.228850 0.961554
vt 0.044406 0.961554
vt 0.246193 0.961554
vt 0.228850 0.972090
vt 0.250447 0.971288
vt 0.447389 0.763500
vt 0.492943 0.466815
vt 0.473494 0.469483
vt 0.423854 0.761347
vt 0.339964 0.747563
vt 0.338756 0.451325
vt 0.333013 0.949000
vt 0.339964 0.982890
vt 0.338756 0.731766
vt 0.423854 0.969106
vt 0.447389 0.966954
vt 0.492943 0.716276
vt 0.488351 0.736452
vt 0.577906 0.350176
vt 0.597355 0.347507
vt 0.484919 0.802193
vt 0.503875 0.800009
vt 0.592416 0.818182
vt 0.732092 0.365666
vt 0.599383 0.616466
vt 0.592379 0.582627
vt 0.732092 0.085226
vt 0.484916 0.598641
vt 0.577906 0.100716
vt 0.582498 0.080540
vt 0.012598 0.502144
vt 0.016647 0.359532
vt 0.016830 0.507806
vt 0.315183 0.359532
vt 0.319234 0.502144
vt 0.315002 0.507806
vt 0.298592 0.359532
vt 0.257298 0.516019
vt 0.033238 0.359532
vt 0.074533 0.516019
vt 0.319234 0.023464
vt 0.315183 0.166076
vt 0.315002 0.017802
vt 0.016647 0.166076
vt 0.012598 0.023464
vt 0.016830 0.017802
vt 0.033238 0.166076
vt 0.074533 0.009589
vt 0.298592 0.166076
vt 0.257298 0.009589
vt 0.160097 0.945242
vt 0.528884 0.836682
vt 0.367412 0.832738
vt 0.544217 0.832738
vt 0.617025 0.774987
vt 0.720585 0.774987
vt 0.383015 0.942830
vt 0.544487 0.945679
vt 0.367682 0.945679
vt 0.608583 0.104123
vt 0.720965 0.931373
vt 0.724909 0.769937
vt 0.724909 0.946703
vt 0.608076 0.346466
vt 0.706144 0.346466
vt 0.613283 0.785267
vt 0.610435 0.946702
vt 0.610435 0.769937
vt 0.386714 0.845126
vt 0.377938 0.938091
vt 0.377938 0.841388
vt 0.524915 0.845126
vt 0.382745 0.836682
vt 0.534102 0.938044
vt 0.525185 0.935270
vt 0.386983 0.935270
vt 0.529153 0.942830
vt 0.711784 0.789235
vt 0.618862 0.779546
vt 0.715544 0.779546
vt 0.711784 0.927405
vt 0.720965 0.785267
vt 0.618863 0.937093
vt 0.621660 0.927405
vt 0.621659 0.789235
vt 0.613283 0.931373
vt 0.808632 0.461658
vt 0.808632 0.569204
vt 0.808632 0.574133
vt 0.834205 0.071901
vt 0.834206 0.077587
vt 0.834206 0.186636
vt 0.834206 0.437505
vt 0.834206 0.443758
vt 0.834206 0.551895
vt 0.808632 0.101393
vt 0.808632 0.106346
vt 0.808632 0.214120
vt 0.342860 0.989560
vt 0.450028 0.985209
vt 0.482265 0.820507
vt 0.589930 0.824786
vt 0.589764 0.576040
vt 0.482411 0.580229
vt 0.445437 0.740893
vt 0.342812 0.740893
vt 0.808632 0.252860
vt 0.808632 0.422627
vt 0.834205 0.225752
vt 0.834206 0.398622
vt 0.811353 0.461658
vt 0.329281 0.949000
vt 0.337278 0.985345
vt 0.808632 0.467647
vt 0.811353 0.569204
vt 0.445437 0.989560
vt 0.811353 0.574133
vt 0.808632 0.590160
vt 0.450028 0.969455
vt 0.834164 0.055878
vt 0.836519 0.071901
vt 0.482273 0.804701
vt 0.836519 0.077587
vt 0.834206 0.180624
vt 0.486881 0.824796
vt 0.836519 0.186636
vt 0.603112 0.784468
vt 0.594999 0.820629
vt 0.836519 0.437505
vt 0.603102 0.616293
vt 0.594935 0.580103
vt 0.836519 0.443758
vt 0.834206 0.546834
vt 0.486556 0.576217
vt 0.836519 0.551895
vt 0.834187 0.568344
vt 0.482270 0.596124
vt 0.808632 0.085142
vt 0.811353 0.101393
vt 0.450028 0.760999
vt 0.450028 0.745245
vt 0.811353 0.106346
vt 0.808632 0.208136
vt 0.811353 0.214001
vt 0.329281 0.781453
vt 0.337278 0.745108
vt 0.811353 0.467647
vt 0.836519 0.180624
vt 0.836519 0.546834
vt 0.811353 0.208136
vt 0.811353 0.252783
vt 0.811353 0.422627
vt 0.836519 0.225752
vt 0.836519 0.398622
vt 0.856000 0.511875
vt 0.856000 0.518180
vt 0.856000 0.660566
vt 0.875430 0.051066
vt 0.875430 0.055846
vt 0.875448 0.200971
vt 0.875412 0.486132
vt 0.875430 0.631257
vt 0.875430 0.636037
vt 0.856000 0.080390
vt 0.856000 0.085186
vt 0.856000 0.229093
vt 0.344766 0.736865
vt 0.494001 0.733043
vt 0.576848 0.366943
vt 0.727053 0.370764
vt 0.727053 0.080128
vt 0.576848 0.083949
vt 0.494001 0.450047
vt 0.343796 0.446227
vt 0.856000 0.283822
vt 0.856000 0.457131
vt 0.875430 0.430905
vt 0.875430 0.256198
vt 0.329281 0.678325
vt 0.337808 0.732845
vt 0.489407 0.737457
vt 0.494001 0.717279
vt 0.576848 0.351178
vt 0.581442 0.371356
vt 0.741567 0.312225
vt 0.733041 0.366745
vt 0.741567 0.138666
vt 0.733041 0.084147
vt 0.581442 0.079535
vt 0.576848 0.099713
vt 0.494001 0.465812
vt 0.489407 0.445634
vt 0.329281 0.504766
vt 0.337808 0.450246
vt 0.856000 0.655770
vt 0.875448 0.194927
vt 0.875411 0.492176
vt 0.856000 0.223231
vt 0.720991 0.475690
vt 0.612006 0.562314
vt 0.720991 0.446893
vt 0.612801 0.682637
vt 0.668843 0.728604
vt 0.669463 0.694646
vt 0.723636 0.739831
vt 0.686787 0.694790
vt 0.686787 0.728788
vt 0.437326 0.514703
vt 0.412351 0.491040
vt 0.437431 0.549995
vt 0.362856 0.538727
vt 0.388285 0.562000
vt 0.362468 0.503085
vt 0.381277 0.520648
vt 0.538232 0.297062
vt 0.545775 0.298787
vt 0.469978 0.271668
vt 0.538232 0.290005
vt 0.398324 0.786622
vt 0.391596 0.794126
vt 0.389864 0.785939
vt 0.451295 0.824135
vt 0.400056 0.794809
vt 0.513386 0.284091
vt 0.476257 0.273642
vt 0.513386 0.285490
vt 0.544707 0.294695
vt 0.538232 0.293093
vt 0.371942 0.814600
vt 0.372039 0.814706
vt 0.588259 0.156094
vt 0.553906 0.022448
vt 0.544343 0.009892
vt 0.550795 0.017738
vt 0.299853 0.635859
vt 0.309326 0.639723
vt 0.285332 0.625706
vt 0.271246 0.611466
vt 0.271246 0.625706
vt 0.303104 0.596536
vt 0.289873 0.611466
vt 0.271246 0.547364
vt 0.561730 0.082487
vt 0.569421 0.038105
vt 0.561730 0.030934
vt 0.557022 0.026201
vt 0.748162 0.685703
vt 0.782204 0.627679
vt 0.785304 0.685703
vt 0.785304 0.426245
vt 0.782139 0.627317
vt 0.748162 0.625341
vt 0.342660 0.326450
vt 0.312507 0.317305
vt 0.342660 0.317315
vt 0.342660 0.260742
vt 0.312507 0.278526
vt 0.312507 0.260742
vt 0.342660 0.295679
vt 0.312507 0.286831
vt 0.342660 0.286831
vt 0.312507 0.314875
vt 0.312507 0.295679
vt 0.342660 0.283279
vt 0.312507 0.283279
vt 0.312507 0.281148
vt 0.342660 0.281148
vt 0.312507 0.315881
vt 0.342660 0.314875
vt 0.344042 0.259631
vt 0.311208 0.259631
vt 0.344042 0.277593
vt 0.344042 0.280105
vt 0.342660 0.278526
vt 0.344042 0.284187
vt 0.344042 0.287739
vt 0.344042 0.313832
vt 0.344042 0.295961
vt 0.344042 0.315821
vt 0.342660 0.315881
vt 0.344042 0.318245
vt 0.344042 0.327503
vt 0.312507 0.326460
vt 0.311208 0.318213
vt 0.311208 0.327503
vt 0.311208 0.316789
vt 0.311208 0.313832
vt 0.311208 0.287739
vt 0.311208 0.295961
vt 0.311208 0.284187
vt 0.311208 0.280738
vt 0.311208 0.276979
vt 0.589278 0.325545
vt 0.562588 0.315926
vt 0.589278 0.315937
vt 0.589278 0.256434
vt 0.562588 0.275140
vt 0.562588 0.256434
vt 0.589278 0.293181
vt 0.562588 0.283875
vt 0.589278 0.283875
vt 0.562588 0.313370
vt 0.562588 0.293181
vt 0.589278 0.280138
vt 0.562588 0.280138
vt 0.589278 0.277897
vt 0.562588 0.277897
vt 0.589278 0.275140
vt 0.589278 0.314429
vt 0.562588 0.314429
vt 0.589278 0.313370
vt 0.590584 0.255196
vt 0.561210 0.255196
vt 0.590584 0.274159
vt 0.590584 0.276800
vt 0.590584 0.281093
vt 0.590584 0.284830
vt 0.590584 0.312274
vt 0.590584 0.293477
vt 0.590584 0.314365
vt 0.590584 0.316915
vt 0.590584 0.326652
vt 0.562588 0.325556
vt 0.561210 0.316881
vt 0.561210 0.326652
vt 0.561210 0.315384
vt 0.561210 0.312274
vt 0.561210 0.284830
vt 0.561210 0.293477
vt 0.561210 0.281093
vt 0.561210 0.276139
vt 0.561210 0.273512
vt 0.873923 0.674996
vt 0.865471 0.674996
vt 0.875413 0.674996
vt 0.875421 0.652135
vt 0.551109 0.100716
vt 0.551109 0.119148
vt 0.597355 0.119148
vt 0.830346 0.612799
vt 0.820825 0.612799
vt 0.834169 0.612095
vt 0.836519 0.611088
vt 0.836519 0.568344
vt 0.433918 0.598623
vt 0.433918 0.616588
vt 0.503875 0.616588
vt 0.569858 0.565457
vt 0.508078 0.557329
vt 0.569858 0.557329
vt 0.569858 0.555880
vt 0.508078 0.555880
vt 0.569858 0.554748
vt 0.508078 0.554748
vt 0.569858 0.537720
vt 0.508078 0.537720
vt 0.569858 0.528715
vt 0.508078 0.528715
vt 0.569858 0.525100
vt 0.508078 0.525100
vt 0.569858 0.522931
vt 0.508078 0.522931
vt 0.569858 0.520275
vt 0.508078 0.520275
vt 0.569858 0.502619
vt 0.529942 0.781453
vt 0.529942 0.763500
vt 0.529942 0.760999
vt 0.811353 0.013944
vt 0.808632 0.012211
vt 0.804868 0.010950
vt 0.795446 0.010950
vt 0.551347 0.485247
vt 0.551347 0.466815
vt 0.551347 0.465812
vt 0.856000 0.010950
vt 0.854376 0.010950
vt 0.845990 0.010950
vt 0.111248 0.640199
vt 0.054996 0.824907
vt 0.054996 0.547191
vt 0.111248 0.762688
vt 0.163982 0.824907
vt 0.163982 0.547191
vt 0.163982 0.758781
vt 0.135705 0.726272
vt 0.163982 0.728681
vt 0.163982 0.671504
vt 0.135705 0.672747
vt 0.163982 0.643194
vt 0.312983 0.240758
vt 0.341177 0.249604
vt 0.312983 0.249604
vt 0.590262 0.243184
vt 0.562756 0.234194
vt 0.590262 0.234165
vt 0.590262 0.173990
vt 0.562756 0.193052
vt 0.562756 0.173990
vt 0.312983 0.180796
vt 0.341177 0.199919
vt 0.312983 0.199919
vt 0.590262 0.211411
vt 0.562756 0.201563
vt 0.590262 0.201563
vt 0.312983 0.208457
vt 0.341177 0.218173
vt 0.312983 0.218173
vt 0.562756 0.231620
vt 0.562756 0.211411
vt 0.341177 0.238166
vt 0.312983 0.238166
vt 0.590262 0.197891
vt 0.562756 0.197910
vt 0.312983 0.204810
vt 0.341177 0.208457
vt 0.590262 0.195667
vt 0.562756 0.195648
vt 0.312983 0.202506
vt 0.341177 0.204810
vt 0.590262 0.193052
vt 0.341177 0.202506
vt 0.590262 0.232709
vt 0.562756 0.232679
vt 0.312983 0.239262
vt 0.341177 0.240758
vt 0.590262 0.231620
vt 0.341177 0.239262
vt 0.341911 0.180200
vt 0.312249 0.180200
vt 0.341910 0.200337
vt 0.341177 0.180796
vt 0.341910 0.203001
vt 0.341910 0.206210
vt 0.341910 0.209934
vt 0.341910 0.238598
vt 0.341910 0.219138
vt 0.341910 0.240686
vt 0.341910 0.242196
vt 0.312249 0.250200
vt 0.341910 0.250200
vt 0.312249 0.242196
vt 0.312249 0.240686
vt 0.312249 0.238598
vt 0.312249 0.209934
vt 0.312249 0.219138
vt 0.312249 0.206210
vt 0.312249 0.203001
vt 0.312249 0.200337
vt 0.561827 0.173204
vt 0.591207 0.192265
vt 0.591207 0.173204
vt 0.591207 0.195658
vt 0.591207 0.197961
vt 0.591207 0.202205
vt 0.591207 0.230834
vt 0.591207 0.211408
vt 0.591207 0.232809
vt 0.591207 0.234782
vt 0.561827 0.243970
vt 0.591207 0.243970
vt 0.561827 0.234782
vt 0.562756 0.243184
vt 0.561827 0.232800
vt 0.561827 0.230834
vt 0.561827 0.202205
vt 0.561827 0.211408
vt 0.561827 0.197998
vt 0.561827 0.195616
vt 0.561827 0.192265
vt 0.854376 0.729492
vt 0.845990 0.729492
vt 0.856000 0.729492
vt 0.856000 0.676980
vt 0.550587 0.716276
vt 0.550587 0.697844
vt 0.473494 0.697844
vt 0.804863 0.663926
vt 0.795451 0.663926
vt 0.808632 0.662668
vt 0.811353 0.660937
vt 0.811353 0.590160
vt 0.529183 0.966954
vt 0.529183 0.949000
vt 0.428446 0.949000
vt 0.445845 0.567096
vt 0.504010 0.558662
vt 0.504010 0.567096
vt 0.445845 0.558662
vt 0.504010 0.557158
vt 0.445845 0.557158
vt 0.504011 0.556095
vt 0.445845 0.556095
vt 0.504011 0.536556
vt 0.445845 0.536556
vt 0.504011 0.527231
vt 0.445845 0.527231
vt 0.504011 0.523523
vt 0.445845 0.523523
vt 0.504011 0.521382
vt 0.445845 0.521382
vt 0.504011 0.518729
vt 0.445845 0.518729
vt 0.504011 0.499686
vt 0.433460 0.784244
vt 0.433460 0.802209
vt 0.433460 0.804712
vt 0.836519 0.012884
vt 0.834124 0.011681
vt 0.830341 0.010950
vt 0.820831 0.010950
vt 0.550650 0.331743
vt 0.550650 0.350176
vt 0.550650 0.351178
vt 0.875418 0.010950
vt 0.873924 0.010950
vt 0.865471 0.010950
vt 0.298592 0.190072
vt 0.033238 0.219303
vt 0.033238 0.190506
vt 0.298592 0.220172
vt 0.033238 0.277053
vt 0.298592 0.305659
vt 0.033238 0.306378
vt 0.169649 0.808189
vt 0.206791 0.779361
vt 0.206791 0.808189
vt 0.360470 0.117765
vt 0.352927 0.123355
vt 0.419724 0.117765
vt 0.174005 0.763047
vt 0.206791 0.763166
vt 0.250598 0.637428
vt 0.254645 0.650335
vt 0.248752 0.652478
vt 0.255618 0.671100
vt 0.246774 0.633729
vt 0.251721 0.636483
vt 0.257107 0.650176
vt 0.255336 0.627384
vt 0.257043 0.671087
vt 0.246774 0.701352
vt 0.251598 0.693394
vt 0.255336 0.701776
vt 0.246774 0.675613
vt 0.248706 0.675613
vt 0.246774 0.652378
vt 0.360470 0.183304
vt 0.352927 0.182930
vt 0.169649 0.720206
vt 0.206791 0.548732
vt 0.206791 0.721703
vt 0.250528 0.692673
vt 0.390849 0.165329
vt 0.419724 0.186325
vt 0.390877 0.131880
vt 0.362030 0.137845
vt 0.361974 0.156268
vt 0.044406 0.852603
vt 0.036545 0.854007
vt 0.174165 0.742722
vt 0.036545 0.837078
vt 0.044406 0.836079
vt 0.720991 0.658049
vt 0.612006 0.618748
vt 0.720991 0.562765
vt 0.036545 0.815305
vt 0.044406 0.814566
vt 0.612006 0.602941
vt 0.720991 0.533440
vt 0.612006 0.582360
vt 0.612006 0.380333
vt 0.575384 0.931882
vt 0.785994 0.394620
vt 0.576433 0.126132
vt 0.164319 0.910114
vt 0.508469 0.596469
vt 0.347567 0.675374
vt 0.723281 0.141618
vt 0.271246 0.910228
vt 0.709033 0.309401
vt 0.589196 0.854442
vt 0.044406 0.603381
vt 0.428446 0.781453
vt 0.473494 0.485247
vt 0.597355 0.331743
vt 0.503875 0.784244
vt 0.012002 0.363875
vt 0.319828 0.363875
vt 0.319828 0.161733
vt 0.012002 0.161733
vt 0.056620 0.945241
vt 0.706650 0.104123
vt 0.533813 0.841341
vt 0.715544 0.937093
vt 0.836519 0.055878
vt 0.811353 0.085142
vt 0.875424 0.035331
vt 0.856000 0.063964
vt 0.425518 0.561481
vt 0.374834 0.491212
vt 0.545775 0.294834
vt 0.456594 0.827762
vt 0.308028 0.593676
vt 0.748162 0.629267
vt 0.748162 0.426245
vt 0.551109 0.099713
vt 0.433918 0.596120
vt 0.508078 0.565457
vt 0.508078 0.502619
vt 0.550587 0.717279
vt 0.529183 0.969455
vt 0.445845 0.499686
vt 0.298592 0.277349
vt 0.169649 0.779361
vt 0.169649 0.548732
vt 0.206791 0.742337
vt 0.612006 0.658049
vt 0.720991 0.380333
s 1
usemtl 01_-_Default
f 366/1/1 368/2/2 369/3/3
f 60/4/4 302/5/4 303/6/4
f 56/7/5 306/8/5 307/9/5
f 3/10/6 6/11/6 4/12/6
f 1/13/6 5/14/6 551/15/6
f 318/16/7 124/17/8 127/18/7
f 189/19/9 378/20/10 379/21/11
f 310/22/12 116/23/13 119/24/12
f 203/25/14 176/26/14 177/27/14
f 319/28/15 56/7/15 307/9/15
f 4/12/6 9/29/6 8/30/6
f 196/31/16 185/32/16 195/33/16
f 11/34/17 372/35/18 373/36/19
f 375/37/20 190/38/21 374/39/22
f 323/40/5 62/41/5 309/42/5
f 303/6/23 118/43/23 60/4/23
f 1/13/6 13/44/6 12/45/6
f 207/46/24 548/47/24 547/48/24
f 3/10/6 14/49/6 7/50/6
f 202/51/25 179/52/25 201/53/25
f 315/54/4 58/55/4 305/56/4
f 163/57/26 25/58/26 162/59/26
f 50/60/26 253/61/26 108/62/26
f 80/63/14 150/64/14 151/65/14
f 42/66/14 245/67/14 104/68/14
f 161/69/5 26/70/5 160/71/5
f 53/72/4 236/73/4 52/74/4
f 49/75/27 230/76/27 48/77/27
f 167/78/5 22/79/5 166/80/5
f 149/81/4 18/82/4 148/83/4
f 45/84/5 232/85/5 44/86/5
f 41/87/28 234/88/28 40/89/28
f 155/90/4 30/91/4 154/92/4
f 18/93/6 32/94/6 19/95/6
f 88/96/6 81/97/6 17/98/6
f 91/99/6 16/100/6 90/101/6
f 93/102/6 29/103/6 92/104/6
f 28/105/6 95/106/6 86/107/6
f 26/108/6 36/109/6 27/110/6
f 96/111/6 85/112/6 25/113/6
f 99/114/6 24/115/6 98/116/6
f 20/117/6 103/118/6 82/119/6
f 230/76/4 47/120/4 48/77/4
f 234/88/5 55/121/5 40/89/5
f 249/122/26 54/123/26 246/124/26
f 241/125/14 46/126/14 238/127/14
f 247/128/29 55/121/29 235/129/29
f 251/130/5 51/131/5 237/132/5
f 239/133/30 47/120/30 231/134/30
f 243/135/4 43/136/4 233/137/4
f 123/138/31 325/139/32 120/140/32
f 112/141/33 314/142/34 317/143/33
f 125/144/4 308/145/4 63/146/4
f 61/147/35 324/148/35 302/5/35
f 117/149/5 304/150/5 59/151/5
f 113/152/36 306/8/36 57/153/36
f 48/154/6 65/155/37 64/156/38
f 128/157/39 107/158/40 46/159/41
f 130/160/6 106/161/37 45/162/6
f 133/163/6 42/164/38 132/165/6
f 41/166/42 135/167/43 104/168/44
f 40/169/6 69/170/37 68/171/38
f 136/172/39 111/173/45 54/174/41
f 138/175/6 110/176/37 53/177/6
f 141/178/6 50/179/38 140/180/6
f 49/181/42 143/182/43 108/183/44
f 83/184/6 100/185/6 101/186/6
f 126/187/46 318/16/46 127/18/46
f 184/188/47 197/189/47 183/190/47
f 190/38/48 377/191/49 189/19/50
f 122/192/51 322/193/51 123/138/51
f 119/24/52 311/194/53 310/22/54
f 207/46/55 172/195/55 173/196/55
f 202/51/55 177/27/55 178/197/55
f 114/198/56 314/142/56 115/199/56
f 240/200/55 106/201/55 241/125/55
f 150/64/57 81/202/57 149/81/57
f 252/203/58 108/62/58 253/61/58
f 144/204/59 83/205/59 167/78/59
f 248/206/60 110/207/60 249/122/60
f 162/59/59 85/208/59 161/69/59
f 244/209/61 104/68/61 245/67/61
f 156/210/57 87/211/57 155/90/57
f 316/212/62 112/141/62 317/143/62
f 105/213/57 242/214/57 42/66/57
f 312/215/63 116/23/63 313/216/63
f 107/217/64 238/127/65 46/126/66
f 325/139/67 121/218/67 120/140/67
f 109/219/59 250/220/59 50/60/59
f 320/221/68 124/17/68 321/222/68
f 111/223/69 246/124/69 54/123/69
f 356/224/26 354/225/26 355/226/26
f 156/210/14 86/227/14 29/228/14
f 24/229/4 165/230/4 23/231/4
f 20/232/4 147/233/4 19/234/4
f 16/235/5 153/236/5 31/237/5
f 28/238/5 159/239/5 27/240/5
f 168/241/4 211/242/4 212/243/4
f 363/244/70 365/245/71 370/246/72
f 179/52/5 200/247/5 201/53/5
f 183/190/26 198/248/26 182/249/26
f 172/195/14 209/250/14 171/251/14
f 181/252/73 200/247/73 180/253/73
f 187/254/74 194/255/74 186/256/74
f 170/257/75 211/242/75 169/258/75
f 175/259/76 206/260/76 174/261/76
f 84/262/60 164/263/60 24/229/60
f 82/264/60 146/265/60 20/232/60
f 80/63/55 152/266/55 16/235/55
f 86/227/55 158/267/55 28/238/55
f 171/251/57 210/268/57 170/257/57
f 188/269/59 193/270/59 187/254/59
f 182/249/59 199/271/59 181/252/59
f 176/26/57 205/272/57 175/259/57
f 2/273/77 169/274/78 168/275/79
f 12/45/80 169/274/78 1/13/81
f 12/45/82 171/276/83 170/277/84
f 77/278/85 171/276/85 76/279/85
f 13/44/86 172/280/87 77/278/88
f 13/44/89 548/281/90 173/282/91
f 14/49/92 174/283/93 7/50/94
f 14/49/95 176/284/96 175/285/97
f 79/286/85 176/284/85 78/287/85
f 15/288/98 177/289/99 79/286/100
f 15/288/101 179/290/102 178/291/103
f 3/10/104 180/292/105 179/290/102
f 8/30/106 180/292/105 4/12/104
f 8/30/107 182/293/108 181/294/109
f 73/295/110 182/293/110 72/296/110
f 73/295/111 184/297/112 183/298/113
f 9/29/114 185/299/115 184/297/116
f 365/245/117 369/3/118 370/246/119
f 10/300/120 186/301/121 5/14/122
f 10/300/123 188/302/124 187/303/125
f 75/304/126 379/21/127 380/305/128
f 11/34/129 189/19/130 75/304/131
f 373/36/132 190/38/133 11/34/134
f 144/306/135 191/307/135 145/308/135
f 167/309/136 192/310/137 144/306/136
f 167/309/138 194/311/139 193/312/140
f 195/313/141 166/314/141 165/315/141
f 164/316/142 195/313/143 165/315/144
f 163/317/145 196/318/146 164/316/147
f 163/317/135 198/319/135 197/320/135
f 161/321/148 198/319/148 162/322/148
f 161/321/149 200/323/150 199/324/151
f 159/325/152 200/323/150 160/326/152
f 158/327/153 201/328/154 159/325/152
f 157/329/155 202/330/155 158/327/155
f 156/331/156 203/332/156 157/329/156
f 156/331/157 205/333/157 204/334/158
f 155/335/159 206/336/160 205/333/161
f 206/336/162 577/337/162 578/338/162
f 152/339/163 547/340/164 153/341/165
f 152/339/166 208/342/166 207/343/155
f 150/344/156 208/342/156 151/345/156
f 149/346/167 209/347/167 150/344/168
f 149/346/169 211/348/170 210/349/171
f 147/350/172 211/348/170 148/351/172
f 146/352/173 212/353/174 147/350/172
f 146/352/175 191/307/175 213/354/175
f 39/355/6 83/184/6 101/186/6
f 71/356/6 109/357/6 141/178/6
f 103/118/6 21/358/6 82/119/6
f 20/117/6 32/94/6 102/359/6
f 143/182/43 50/179/38 108/183/44
f 49/181/42 64/156/38 142/360/176
f 33/361/6 81/97/6 89/362/6
f 65/155/37 107/158/40 129/363/177
f 88/96/6 80/364/6 91/99/6
f 16/100/6 34/365/6 90/101/6
f 45/162/6 66/366/6 130/160/6
f 128/157/39 106/161/37 131/367/6
f 67/368/6 105/369/6 133/163/6
f 35/370/6 87/371/6 93/102/6
f 92/104/6 86/107/6 95/106/6
f 28/105/6 36/109/6 94/372/6
f 135/167/43 42/164/38 104/168/44
f 41/166/42 68/171/38 134/373/176
f 37/374/6 85/112/6 97/375/6
f 69/170/37 111/173/45 137/376/177
f 25/113/6 99/114/6 96/111/6
f 24/115/6 38/377/6 98/116/6
f 53/177/6 70/378/6 138/175/6
f 136/172/39 110/176/37 139/379/6
f 119/380/178 117/381/179 118/382/180
f 122/383/181 120/384/182 121/385/183
f 62/386/184 121/385/183 61/387/185
f 118/382/180 59/388/184 60/389/185
f 61/387/185 59/388/184 62/386/184
f 127/390/180 125/391/179 126/392/180
f 114/393/181 112/394/182 113/395/183
f 58/396/184 113/395/183 57/397/185
f 126/392/180 63/398/184 56/399/185
f 56/399/185 58/396/184 57/397/185
f 215/400/4 148/83/4 18/82/4
f 216/401/4 18/402/4 19/403/4
f 216/404/4 147/233/4 217/405/4
f 214/406/4 147/407/4 148/408/4
f 219/409/5 160/71/5 26/70/5
f 220/410/5 26/411/5 27/412/5
f 220/413/5 159/239/5 221/414/5
f 218/415/5 159/416/5 160/417/5
f 223/418/186 214/419/186 215/420/186
f 224/421/187 215/422/187 216/401/187
f 224/421/188 217/423/188 225/424/188
f 222/425/189 217/426/189 214/406/189
f 227/427/190 218/428/190 219/429/190
f 228/430/191 219/431/191 220/410/191
f 228/430/192 221/432/192 229/433/192
f 226/434/193 221/435/193 218/415/193
f 231/134/194 273/436/195 239/133/196
f 238/127/197 277/437/198 241/125/198
f 275/438/199 232/85/199 240/200/199
f 233/137/200 281/439/200 243/135/200
f 279/440/198 245/67/198 242/214/198
f 283/441/201 234/88/202 244/209/203
f 235/129/204 289/442/205 247/128/206
f 287/443/207 249/122/207 246/124/207
f 291/444/208 236/73/208 248/206/208
f 237/132/199 297/445/199 251/130/199
f 295/446/207 253/61/207 250/220/207
f 299/447/209 230/76/210 252/203/211
f 270/448/212 89/362/213 88/96/214
f 274/449/215 91/99/215 90/101/215
f 92/104/216 280/450/216 93/102/216
f 94/372/217 284/451/218 95/106/219
f 286/452/220 97/375/221 96/111/222
f 290/453/223 99/114/223 98/116/223
f 294/454/224 101/186/224 100/185/224
f 102/359/225 300/455/226 103/118/227
f 231/134/228 255/456/228 257/457/228
f 235/129/229 263/458/229 265/459/229
f 257/457/230 272/460/231 273/436/232
f 256/461/233 89/362/234 272/462/235
f 271/463/236 276/464/237 277/437/237
f 270/448/238 91/99/239 276/465/239
f 274/466/240 259/467/240 275/438/240
f 90/101/241 258/468/241 274/449/241
f 261/469/242 280/470/242 281/439/242
f 260/471/243 93/102/243 280/450/243
f 278/472/237 285/473/237 279/440/237
f 92/104/239 284/451/239 278/474/239
f 282/475/244 263/458/245 283/441/246
f 94/372/247 262/476/248 282/477/249
f 265/459/250 288/478/251 289/442/252
f 264/479/253 97/375/254 288/480/255
f 286/481/256 293/482/256 287/443/256
f 96/111/257 292/483/257 286/452/257
f 290/484/242 267/485/242 291/444/242
f 98/116/243 266/486/243 290/453/243
f 269/487/240 296/488/240 297/445/240
f 268/489/241 101/186/241 296/490/241
f 294/491/256 301/492/256 295/446/256
f 100/185/257 300/455/258 294/454/257
f 298/493/259 255/456/260 299/447/261
f 102/359/262 254/494/263 298/495/264
f 271/463/265 272/460/266 270/496/267
f 238/127/268 273/436/269 271/463/270
f 274/466/271 277/437/271 276/464/271
f 240/200/272 277/437/272 275/438/272
f 278/472/273 281/439/273 280/470/273
f 242/214/274 281/439/274 279/440/274
f 282/475/275 285/473/276 284/497/277
f 283/441/278 245/67/279 285/473/280
f 287/443/281 288/478/282 286/481/283
f 246/124/284 289/442/285 287/443/286
f 291/444/287 292/498/287 290/484/287
f 291/444/288 249/122/288 293/482/288
f 294/491/289 297/445/289 296/488/289
f 250/220/290 297/445/290 295/446/290
f 298/493/291 301/492/292 300/499/293
f 299/447/294 253/61/295 301/492/296
f 257/457/297 254/500/297 256/501/297
f 256/461/298 32/94/298 33/361/298
f 265/459/299 262/502/299 264/503/299
f 264/479/300 36/109/300 37/374/300
f 303/6/301 335/504/302 311/194/303
f 334/505/304 313/216/305 310/22/306
f 336/506/307 304/150/307 312/215/307
f 305/56/308 339/507/308 315/54/308
f 338/508/309 317/143/310 314/142/311
f 340/509/312 306/8/313 316/212/314
f 307/9/315 343/510/316 319/28/317
f 318/16/318 345/511/319 321/222/320
f 344/512/308 308/145/308 320/221/308
f 309/42/307 347/513/307 323/40/307
f 346/514/321 325/139/322 322/193/323
f 348/515/324 302/5/325 324/148/326
f 334/516/327 129/363/328 128/157/329
f 336/517/330 131/367/330 130/160/330
f 132/165/331 339/518/331 133/163/331
f 134/373/332 341/519/333 135/167/334
f 342/520/335 137/376/336 136/172/335
f 344/521/337 139/379/337 138/175/337
f 140/180/338 347/522/338 141/178/338
f 142/360/339 349/523/339 143/182/340
f 303/6/341 326/524/341 327/525/341
f 331/526/342 306/8/342 330/527/342
f 327/528/343 129/363/344 335/529/345
f 334/516/346 131/367/347 337/530/348
f 130/160/349 328/531/349 336/517/349
f 329/532/350 133/163/350 339/518/350
f 132/165/351 341/519/352 338/533/353
f 134/373/354 330/534/355 340/535/356
f 331/536/357 137/376/358 343/537/359
f 342/520/360 139/379/361 345/538/362
f 138/175/350 332/539/350 344/521/350
f 333/540/349 141/178/349 347/522/349
f 140/180/363 349/523/364 346/541/365
f 142/360/366 326/542/367 348/543/368
f 310/22/369 335/504/370 334/505/371
f 312/215/372 337/544/372 336/506/372
f 338/508/373 315/54/373 339/507/373
f 340/509/374 317/143/375 341/545/376
f 318/16/377 343/510/378 342/546/377
f 320/221/379 345/511/379 344/512/379
f 346/514/380 323/40/381 347/513/381
f 348/515/382 325/139/383 349/547/383
f 327/528/384 64/156/384 65/155/384
f 331/536/385 68/171/385 69/170/385
f 227/427/5 229/433/5 226/434/5
f 526/548/14 577/549/14 527/550/14
f 223/418/4 225/424/4 222/425/4
f 21/551/26 350/552/26 82/264/26
f 144/204/26 351/553/26 21/551/26
f 145/554/26 352/555/26 144/204/26
f 145/554/26 350/552/26 353/556/26
f 351/557/386 354/225/386 350/558/386
f 351/559/387 356/224/387 355/226/387
f 353/560/184 356/224/184 352/561/184
f 353/562/388 354/225/388 357/563/388
f 185/299/389 359/564/389 358/565/389
f 6/11/6 360/566/6 359/564/6
f 186/301/389 362/567/389 5/14/389
f 359/568/390 365/569/391 358/570/391
f 359/568/390 367/571/392 366/572/393
f 361/573/6 367/574/394 360/566/6
f 362/567/6 368/575/6 361/573/6
f 362/567/389 370/576/395 369/577/389
f 364/578/396 365/569/397 371/579/398
f 75/304/399 381/580/400 11/34/401
f 77/278/6 12/45/6 13/44/6
f 9/29/6 72/296/6 8/30/6
f 78/287/6 15/288/6 79/286/6
f 2/273/6 372/581/6 5/14/6
f 2/273/77 374/582/402 373/583/403
f 168/241/404 375/584/405 374/585/406
f 212/243/407 376/586/408 375/584/405
f 191/587/60 376/586/60 213/588/60
f 191/587/26 378/589/26 377/590/26
f 188/269/26 378/589/26 192/591/26
f 74/592/110 379/593/110 188/302/110
f 10/300/6 380/594/6 74/592/6
f 5/14/6 381/595/6 10/300/6
f 185/596/26 364/597/26 195/598/26
f 194/599/26 364/597/26 371/600/26
f 363/601/26 194/599/26 371/600/26
f 392/602/26 394/603/26 391/604/26
f 383/605/6 401/606/6 382/607/6
f 388/608/26 398/609/26 387/610/26
f 388/608/6 396/611/6 397/612/6
f 386/613/409 398/609/409 399/614/409
f 400/615/410 386/613/256 399/614/410
f 401/606/258 385/616/258 400/615/258
f 395/617/411 391/604/411 394/603/411
f 389/618/412 395/617/412 396/611/412
f 402/619/413 382/607/413 403/620/413
f 413/621/414 383/605/414 402/619/414
f 417/622/415 384/623/415 413/621/415
f 417/622/416 386/613/416 385/616/416
f 415/624/417 387/610/418 386/613/419
f 405/625/420 388/608/420 387/610/420
f 419/626/414 388/608/414 407/627/414
f 421/628/421 389/618/421 419/626/421
f 421/628/422 391/604/423 390/629/423
f 411/630/424 392/602/424 391/604/424
f 408/631/425 393/632/426 392/602/426
f 410/633/427 393/632/427 409/634/427
f 420/635/428 394/603/428 410/633/429
f 420/635/430 396/611/430 395/617/430
f 418/636/431 397/612/431 396/611/431
f 404/637/432 397/612/432 406/638/432
f 414/639/433 398/609/434 404/637/435
f 416/640/436 399/614/436 414/639/436
f 416/640/437 401/606/437 400/615/437
f 412/641/431 382/607/431 401/606/431
f 432/642/26 434/643/26 431/644/26
f 423/645/6 441/646/6 422/647/6
f 428/648/26 438/649/26 427/650/26
f 428/648/6 436/651/6 437/652/6
f 426/653/409 438/649/409 439/654/409
f 425/655/410 439/654/256 440/656/256
f 424/657/258 440/656/258 441/646/258
f 430/658/411 434/643/411 435/659/411
f 429/660/412 435/659/412 436/651/412
f 442/661/413 422/647/413 443/662/413
f 453/663/438 423/645/438 442/661/438
f 457/664/439 424/657/439 453/663/439
f 457/664/440 426/653/416 425/655/440
f 455/665/441 427/650/442 426/653/443
f 445/666/444 428/648/444 427/650/444
f 459/667/438 428/648/438 447/668/438
f 461/669/445 429/660/445 459/667/445
f 461/669/446 431/644/446 430/658/446
f 451/670/447 432/642/447 431/644/447
f 448/671/426 433/672/426 432/642/426
f 450/673/448 433/672/448 449/674/448
f 460/675/449 434/643/449 450/673/449
f 460/675/450 436/651/450 435/659/450
f 458/676/451 437/652/451 436/651/451
f 444/677/452 437/652/452 446/678/452
f 454/679/453 438/649/454 444/677/435
f 456/680/455 439/654/436 454/679/436
f 456/680/456 441/646/456 440/656/456
f 452/681/451 422/647/451 441/646/451
f 63/146/26 410/682/457 409/683/26
f 420/684/411 308/145/458 332/685/411
f 418/686/459 332/539/412 70/378/460
f 406/687/6 70/378/460 52/688/6
f 52/74/26 404/689/461 406/690/26
f 414/691/462 236/73/463 267/485/464
f 416/692/465 267/485/464 266/693/466
f 412/694/467 266/486/466 38/377/468
f 403/695/6 38/377/468 23/696/6
f 449/697/26 411/698/457 450/699/457
f 411/698/457 460/700/411 450/699/457
f 421/701/412 458/702/459 460/700/412
f 419/703/459 446/704/6 458/702/459
f 407/705/26 444/706/461 446/704/26
f 405/707/461 454/708/462 444/706/461
f 415/709/469 456/710/465 454/708/462
f 417/711/470 452/712/467 456/710/465
f 413/713/467 443/714/6 452/712/467
f 442/715/6 39/355/468 453/716/467
f 453/716/467 268/489/466 457/717/465
f 457/718/465 269/487/464 455/719/462
f 455/719/462 237/132/463 445/720/461
f 237/132/463 447/721/26 445/720/461
f 447/722/6 71/356/460 459/723/459
f 459/723/459 333/540/412 461/724/412
f 461/725/411 309/42/458 451/726/457
f 309/42/458 448/727/26 451/726/457
f 464/728/26 165/729/26 166/730/26
f 465/731/26 23/732/26 165/729/26
f 22/733/26 464/728/26 166/730/26
f 403/734/26 462/735/26 402/736/26
f 443/737/26 462/735/26 463/738/26
f 442/739/26 463/738/26 464/728/26
f 464/728/26 462/735/26 465/731/26
f 468/740/14 466/741/14 467/742/14
f 472/743/14 470/744/14 471/745/14
f 475/746/6 477/747/6 474/748/6
f 480/749/6 478/750/6 479/751/6
f 484/752/471 482/753/471 483/754/471
f 488/755/472 486/756/472 487/757/472
f 484/752/473 491/758/473 485/759/473
f 487/757/474 492/760/474 493/761/474
f 495/762/198 482/753/198 494/763/198
f 496/764/475 489/765/475 488/755/475
f 499/766/237 494/763/237 498/767/237
f 500/768/476 497/769/476 496/764/476
f 476/770/477 498/767/477 477/747/477
f 479/751/477 501/771/477 500/768/477
f 503/772/478 470/744/478 502/773/478
f 504/774/479 469/775/479 468/740/479
f 490/776/480 502/773/480 491/758/480
f 493/761/480 505/777/480 504/774/480
f 507/778/481 480/749/481 506/779/481
f 508/780/482 481/781/482 507/778/482
f 509/782/483 478/750/484 508/780/485
f 509/782/486 497/769/487 501/771/488
f 510/783/489 489/765/489 497/769/490
f 511/784/491 486/756/492 489/765/493
f 513/785/494 486/756/495 512/786/496
f 514/787/497 492/760/497 513/785/497
f 514/787/498 469/775/499 505/777/498
f 515/788/500 466/741/500 469/775/500
f 517/789/501 466/741/501 516/790/501
f 518/791/502 467/742/502 517/789/502
f 519/792/503 468/740/504 518/791/504
f 519/792/505 493/761/505 504/774/505
f 520/793/506 487/757/507 493/761/508
f 522/794/509 487/757/510 521/795/511
f 523/796/512 488/755/512 522/794/512
f 524/797/513 496/764/514 523/796/514
f 524/797/515 479/751/516 500/768/517
f 525/798/518 480/749/518 479/751/518
f 526/799/519 475/746/520 474/748/519
f 528/800/521 475/746/522 527/801/522
f 529/802/523 476/770/524 528/800/524
f 529/802/525 495/762/525 499/766/525
f 530/803/526 483/754/526 495/762/526
f 531/804/527 484/752/528 483/754/529
f 533/805/530 484/752/531 532/806/532
f 534/807/533 490/776/533 533/805/533
f 534/807/534 471/745/534 503/772/534
f 535/808/535 472/743/535 471/745/535
f 537/809/536 472/743/536 536/810/536
f 538/811/537 473/812/537 537/809/537
f 539/813/538 470/744/538 538/811/538
f 539/813/539 491/758/539 502/773/539
f 540/814/540 485/759/541 491/758/542
f 542/815/543 485/759/544 541/816/545
f 543/817/546 482/753/546 542/815/546
f 544/818/547 494/763/547 543/817/547
f 544/818/548 477/747/549 498/767/548
f 545/819/550 474/748/551 477/747/550
f 59/151/14 518/820/552 517/821/14
f 519/822/478 304/150/553 328/823/478
f 520/824/554 328/531/480 66/366/555
f 521/825/6 66/366/555 44/826/6
f 44/86/14 522/827/556 521/828/14
f 523/829/557 232/85/558 259/467/559
f 524/830/560 259/467/559 258/831/561
f 525/832/562 258/468/561 34/365/563
f 506/833/6 34/365/563 31/834/6
f 516/835/14 538/836/552 537/837/14
f 515/838/552 539/839/478 538/836/552
f 514/840/480 540/841/554 539/839/480
f 513/842/554 541/843/6 540/841/554
f 512/844/14 542/845/556 541/843/14
f 511/846/556 543/847/557 542/845/556
f 510/848/557 544/849/560 543/847/557
f 509/850/564 545/851/562 544/849/560
f 508/852/562 526/853/6 545/851/562
f 527/854/6 35/370/563 528/855/562
f 528/855/562 260/471/561 529/856/560
f 529/857/560 261/469/559 530/858/557
f 530/858/557 233/137/558 531/859/556
f 233/137/558 532/860/14 531/859/556
f 532/861/6 67/368/555 533/862/554
f 533/862/554 329/532/480 534/863/480
f 534/864/478 305/56/553 535/865/552
f 305/56/553 536/866/14 535/865/552
f 409/867/184 537/868/184 536/869/184
f 58/396/184 409/867/184 536/869/184
f 408/870/184 516/871/184 537/868/184
f 516/871/184 448/872/184 517/873/184
f 517/873/184 62/386/184 59/388/184
f 548/874/14 546/875/14 547/876/14
f 548/281/565 552/877/565 549/878/565
f 551/15/6 554/879/566 552/877/6
f 546/875/14 567/880/14 572/881/14
f 558/882/567 565/883/568 566/884/569
f 561/885/570 566/884/569 565/883/568
f 549/886/571 559/887/572 558/882/573
f 556/888/574 559/887/575 552/889/576
f 562/890/577 565/883/578 556/888/579
f 550/891/580 563/892/581 553/893/582
f 557/894/583 566/884/584 560/895/585
f 567/896/586 558/882/587 566/884/588
f 553/897/565 174/283/565 550/898/565
f 550/899/14 206/900/14 578/901/14
f 553/897/589 360/566/6 7/50/6
f 557/894/590 564/902/591 550/891/592
f 564/902/593 561/885/594 563/892/595
f 563/892/596 562/890/597 553/893/598
f 5/14/6 361/573/6 360/566/6
f 569/903/599 554/879/566 555/904/600
f 552/877/6 568/905/601 556/906/602
f 553/897/589 569/903/599 555/904/600
f 562/907/603 568/905/601 569/903/599
f 555/904/600 5/14/6 360/566/6
f 570/908/162 547/340/162 571/909/162
f 557/910/14 572/881/14 567/880/14
f 570/908/162 574/911/162 573/912/162
f 578/901/14 557/910/14 550/899/14
f 31/913/14 570/914/14 506/915/14
f 573/912/162 576/916/162 575/917/162
f 575/917/162 578/338/162 577/337/162
f 506/915/14 573/918/14 507/919/14
f 507/919/14 575/920/14 526/548/14
f 154/921/14 527/550/14 577/549/14
f 366/1/1 367/922/604 368/2/2
f 60/4/4 61/147/4 302/5/4
f 56/7/5 57/153/5 306/8/5
f 3/10/6 7/50/6 6/11/6
f 1/13/6 2/273/6 5/14/6
f 318/16/7 321/222/8 124/17/8
f 189/19/9 377/191/605 378/20/10
f 310/22/12 313/216/13 116/23/13
f 203/25/14 204/923/14 176/26/14
f 319/28/15 126/187/15 56/7/15
f 4/12/6 6/11/6 9/29/6
f 196/31/16 184/188/16 185/32/16
f 11/34/17 381/580/606 372/35/18
f 375/37/20 376/924/607 190/38/21
f 323/40/5 122/192/5 62/41/5
f 303/6/23 311/194/23 118/43/23
f 1/13/6 551/15/6 13/44/6
f 207/46/24 173/196/24 548/47/24
f 3/10/6 15/288/6 14/49/6
f 202/51/25 178/197/25 179/52/25
f 315/54/4 114/198/4 58/55/4
f 163/57/26 84/262/26 25/58/26
f 50/60/26 250/220/26 253/61/26
f 80/63/14 17/925/14 150/64/14
f 42/66/14 242/214/14 245/67/14
f 161/69/5 85/208/5 26/70/5
f 53/72/4 248/206/4 236/73/4
f 49/75/27 252/203/27 230/76/27
f 167/78/5 83/205/5 22/79/5
f 149/81/4 81/202/4 18/82/4
f 45/84/5 240/200/5 232/85/5
f 41/87/28 244/209/28 234/88/28
f 155/90/4 87/211/4 30/91/4
f 18/93/6 33/361/6 32/94/6
f 88/96/6 89/362/6 81/97/6
f 91/99/6 80/364/6 16/100/6
f 93/102/6 87/371/6 29/103/6
f 28/105/6 94/372/6 95/106/6
f 26/108/6 37/374/6 36/109/6
f 96/111/6 97/375/6 85/112/6
f 99/114/6 84/926/6 24/115/6
f 20/117/6 102/359/6 103/118/6
f 230/76/4 231/134/4 47/120/4
f 234/88/5 235/129/5 55/121/5
f 249/122/26 110/207/26 54/123/26
f 241/125/14 106/201/14 46/126/14
f 247/128/29 111/223/29 55/121/29
f 251/130/5 109/219/5 51/131/5
f 239/133/30 107/217/30 47/120/30
f 243/135/4 105/213/4 43/136/4
f 123/138/31 322/193/31 325/139/32
f 112/141/33 115/199/34 314/142/34
f 125/144/4 320/221/4 308/145/4
f 61/147/35 121/218/35 324/148/35
f 117/149/5 312/215/5 304/150/5
f 113/152/36 316/212/36 306/8/36
f 48/154/6 47/927/6 65/155/37
f 128/157/39 129/363/177 107/158/40
f 130/160/6 131/367/6 106/161/37
f 133/163/6 105/369/6 42/164/38
f 41/166/42 134/373/176 135/167/43
f 40/169/6 55/928/6 69/170/37
f 136/172/39 137/376/177 111/173/45
f 138/175/6 139/379/6 110/176/37
f 141/178/6 109/357/6 50/179/38
f 49/181/42 142/360/176 143/182/43
f 83/184/6 21/358/6 100/185/6
f 126/187/46 319/28/46 318/16/46
f 184/188/47 196/31/47 197/189/47
f 190/38/48 376/924/608 377/191/49
f 122/192/51 323/40/51 322/193/51
f 119/24/52 118/43/609 311/194/53
f 207/46/55 208/929/55 172/195/55
f 202/51/55 203/25/55 177/27/55
f 114/198/56 315/54/56 314/142/56
f 240/200/55 45/84/55 106/201/55
f 150/64/57 17/925/57 81/202/57
f 252/203/58 49/75/58 108/62/58
f 144/204/59 21/551/59 83/205/59
f 248/206/60 53/72/60 110/207/60
f 162/59/59 25/58/59 85/208/59
f 244/209/61 41/87/61 104/68/61
f 156/210/57 29/228/57 87/211/57
f 316/212/62 113/152/62 112/141/62
f 105/213/57 243/135/57 242/214/57
f 312/215/63 117/149/63 116/23/63
f 107/217/64 239/133/610 238/127/65
f 325/139/67 324/148/67 121/218/67
f 109/219/59 251/130/59 250/220/59
f 320/221/68 125/144/68 124/17/68
f 111/223/69 247/128/69 246/124/69
f 356/224/26 357/563/26 354/225/26
f 156/210/14 157/930/14 86/227/14
f 24/229/4 164/263/4 165/230/4
f 20/232/4 146/265/4 147/233/4
f 16/235/5 152/266/5 153/236/5
f 28/238/5 158/267/5 159/239/5
f 168/241/4 169/258/4 211/242/4
f 363/244/70 371/931/611 365/245/71
f 179/52/5 180/253/5 200/247/5
f 183/190/26 197/189/26 198/248/26
f 172/195/14 208/929/14 209/250/14
f 181/252/73 199/271/73 200/247/73
f 187/254/74 193/270/74 194/255/74
f 170/257/75 210/268/75 211/242/75
f 175/259/76 205/272/76 206/260/76
f 84/262/60 163/57/60 164/263/60
f 82/264/60 145/554/60 146/265/60
f 80/63/55 151/65/55 152/266/55
f 86/227/55 157/930/55 158/267/55
f 171/251/57 209/250/57 210/268/57
f 188/269/59 192/591/59 193/270/59
f 182/249/59 198/248/59 199/271/59
f 176/26/57 204/923/57 205/272/57
f 2/273/77 1/13/81 169/274/78
f 12/45/80 170/277/612 169/274/78
f 12/45/82 76/279/613 171/276/83
f 77/278/85 172/280/85 171/276/85
f 13/44/86 173/282/614 172/280/87
f 13/44/89 551/15/122 548/281/90
f 14/49/92 175/285/615 174/283/93
f 14/49/95 78/287/616 176/284/96
f 79/286/85 177/289/85 176/284/85
f 15/288/98 178/291/617 177/289/99
f 15/288/101 3/10/104 179/290/102
f 3/10/104 4/12/104 180/292/105
f 8/30/106 181/294/618 180/292/105
f 8/30/107 72/296/619 182/293/108
f 73/295/110 183/298/110 182/293/110
f 73/295/111 9/29/620 184/297/112
f 9/29/114 6/11/621 185/299/115
f 365/245/117 366/1/622 369/3/118
f 10/300/120 187/303/623 186/301/121
f 10/300/123 74/592/624 188/302/124
f 75/304/126 189/19/625 379/21/127
f 11/34/129 190/38/626 189/19/130
f 373/36/132 374/39/627 190/38/133
f 144/306/135 192/310/135 191/307/135
f 167/309/136 193/312/148 192/310/137
f 167/309/138 166/314/165 194/311/139
f 195/313/141 194/311/141 166/314/141
f 164/316/142 196/318/628 195/313/143
f 163/317/145 197/320/629 196/318/146
f 163/317/135 162/322/135 198/319/135
f 161/321/148 199/324/148 198/319/148
f 161/321/149 160/326/152 200/323/150
f 159/325/152 201/328/154 200/323/150
f 158/327/153 202/330/630 201/328/154
f 157/329/155 203/332/155 202/330/155
f 156/331/156 204/334/156 203/332/156
f 156/331/157 155/335/157 205/333/157
f 155/335/159 154/932/144 206/336/160
f 206/336/162 154/932/162 577/337/162
f 152/339/163 207/343/631 547/340/164
f 152/339/166 151/345/166 208/342/166
f 150/344/156 209/347/156 208/342/156
f 149/346/167 210/349/167 209/347/167
f 149/346/169 148/351/172 211/348/170
f 147/350/172 212/353/174 211/348/170
f 146/352/173 213/354/632 212/353/174
f 146/352/175 145/308/633 191/307/175
f 39/355/6 22/933/6 83/184/6
f 71/356/6 51/934/6 109/357/6
f 103/118/6 100/185/6 21/358/6
f 20/117/6 19/95/6 32/94/6
f 143/182/43 140/180/6 50/179/38
f 49/181/42 48/154/6 64/156/38
f 33/361/6 18/93/6 81/97/6
f 65/155/37 47/927/6 107/158/40
f 88/96/6 17/98/6 80/364/6
f 16/100/6 31/834/6 34/365/6
f 45/162/6 44/826/6 66/366/6
f 128/157/39 46/159/41 106/161/37
f 67/368/6 43/935/6 105/369/6
f 35/370/6 30/936/6 87/371/6
f 92/104/6 29/103/6 86/107/6
f 28/105/6 27/110/6 36/109/6
f 135/167/43 132/165/6 42/164/38
f 41/166/42 40/169/6 68/171/38
f 37/374/6 26/108/6 85/112/6
f 69/170/37 55/928/6 111/173/45
f 25/113/6 84/926/6 99/114/6
f 24/115/6 23/696/6 38/377/6
f 53/177/6 52/688/6 70/378/6
f 136/172/39 54/174/41 110/176/37
f 119/380/178 116/937/634 117/381/179
f 122/383/181 123/938/635 120/384/182
f 62/386/184 122/383/181 121/385/183
f 118/382/180 117/381/179 59/388/184
f 61/387/185 60/389/185 59/388/184
f 127/390/180 124/939/634 125/391/179
f 114/393/181 115/940/635 112/394/182
f 58/396/184 114/393/181 113/395/183
f 126/392/180 125/391/179 63/398/184
f 56/399/185 63/398/184 58/396/184
f 215/400/4 214/941/4 148/83/4
f 216/401/4 215/422/4 18/402/4
f 216/404/4 19/234/4 147/233/4
f 214/406/4 217/426/4 147/407/4
f 219/409/5 218/942/5 160/71/5
f 220/410/5 219/431/5 26/411/5
f 220/413/5 27/240/5 159/239/5
f 218/415/5 221/435/5 159/416/5
f 223/418/186 222/425/186 214/419/186
f 224/421/187 223/418/187 215/422/187
f 224/421/188 216/943/188 217/423/188
f 222/425/189 225/424/189 217/426/189
f 227/427/190 226/434/190 218/428/190
f 228/430/191 227/427/191 219/431/191
f 228/430/192 220/944/192 221/432/192
f 226/434/193 229/433/193 221/435/193
f 231/134/194 257/457/636 273/436/195
f 238/127/197 271/463/197 277/437/198
f 275/438/199 259/467/199 232/85/199
f 233/137/200 261/469/200 281/439/200
f 279/440/198 285/473/198 245/67/198
f 283/441/201 263/458/637 234/88/202
f 235/129/204 265/459/638 289/442/205
f 287/443/207 293/482/207 249/122/207
f 291/444/208 267/485/208 236/73/208
f 237/132/199 269/487/199 297/445/199
f 295/446/207 301/492/207 253/61/207
f 299/447/209 255/456/639 230/76/210
f 270/448/212 272/462/640 89/362/213
f 274/449/215 276/465/215 91/99/215
f 92/104/216 278/474/216 280/450/216
f 94/372/217 282/477/641 284/451/218
f 286/452/220 288/480/642 97/375/221
f 290/453/223 292/483/223 99/114/223
f 294/454/224 296/490/224 101/186/224
f 102/359/225 298/495/643 300/455/226
f 231/134/228 230/76/228 255/456/228
f 235/129/229 234/88/229 263/458/229
f 257/457/230 256/501/644 272/460/231
f 256/461/233 33/361/645 89/362/234
f 271/463/236 270/496/236 276/464/237
f 270/448/238 88/96/238 91/99/239
f 274/466/240 258/831/240 259/467/240
f 90/101/241 34/365/241 258/468/241
f 261/469/242 260/945/242 280/470/242
f 260/471/243 35/370/243 93/102/243
f 278/472/237 284/497/237 285/473/237
f 92/104/239 95/106/239 284/451/239
f 282/475/244 262/502/646 263/458/245
f 94/372/247 36/109/647 262/476/248
f 265/459/250 264/503/648 288/478/251
f 264/479/253 37/374/649 97/375/254
f 286/481/256 292/498/256 293/482/256
f 96/111/257 99/114/257 292/483/257
f 290/484/242 266/693/242 267/485/242
f 98/116/243 38/377/243 266/486/243
f 269/487/240 268/946/240 296/488/240
f 268/489/241 39/355/241 101/186/241
f 294/491/256 300/499/256 301/492/256
f 100/185/257 103/118/258 300/455/258
f 298/493/259 254/500/650 255/456/260
f 102/359/262 32/94/651 254/494/263
f 271/463/265 273/436/652 272/460/266
f 238/127/268 239/133/653 273/436/269
f 274/466/271 275/438/271 277/437/271
f 240/200/272 241/125/272 277/437/272
f 278/472/273 279/440/273 281/439/273
f 242/214/274 243/135/274 281/439/274
f 282/475/275 283/441/654 285/473/276
f 283/441/278 244/209/655 245/67/279
f 287/443/281 289/442/656 288/478/282
f 246/124/284 247/128/657 289/442/285
f 291/444/287 293/482/287 292/498/287
f 291/444/288 248/206/288 249/122/288
f 294/491/289 295/446/289 297/445/289
f 250/220/290 251/130/290 297/445/290
f 298/493/291 299/447/658 301/492/292
f 299/447/294 252/203/659 253/61/295
f 257/457/297 255/456/297 254/500/297
f 256/461/298 254/494/298 32/94/298
f 265/459/299 263/458/299 262/502/299
f 264/479/300 262/476/300 36/109/300
f 303/6/301 327/525/660 335/504/302
f 334/505/304 337/544/661 313/216/305
f 336/506/307 328/823/307 304/150/307
f 305/56/308 329/947/308 339/507/308
f 338/508/309 341/545/662 317/143/310
f 340/509/312 330/527/663 306/8/313
f 307/9/315 331/526/664 343/510/316
f 318/16/318 342/546/665 345/511/319
f 344/512/308 332/685/308 308/145/308
f 309/42/307 333/948/307 347/513/307
f 346/514/321 349/547/666 325/139/322
f 348/515/324 326/524/667 302/5/325
f 334/516/327 335/529/668 129/363/328
f 336/517/330 337/530/330 131/367/330
f 132/165/331 338/533/331 339/518/331
f 134/373/332 340/535/332 341/519/333
f 342/520/335 343/537/336 137/376/336
f 344/521/337 345/538/337 139/379/337
f 140/180/338 346/541/338 347/522/338
f 142/360/339 348/543/339 349/523/339
f 303/6/341 302/5/341 326/524/341
f 331/526/342 307/9/342 306/8/342
f 327/528/343 65/155/669 129/363/344
f 334/516/346 128/157/670 131/367/347
f 130/160/349 66/366/349 328/531/349
f 329/532/350 67/368/350 133/163/350
f 132/165/351 135/167/671 341/519/352
f 134/373/354 68/171/672 330/534/355
f 331/536/357 69/170/673 137/376/358
f 342/520/360 136/172/674 139/379/361
f 138/175/350 70/378/350 332/539/350
f 333/540/349 71/356/349 141/178/349
f 140/180/363 143/182/675 349/523/364
f 142/360/366 64/156/676 326/542/367
f 310/22/369 311/194/677 335/504/370
f 312/215/372 313/216/372 337/544/372
f 338/508/373 314/142/373 315/54/373
f 340/509/374 316/212/374 317/143/375
f 318/16/377 319/28/378 343/510/378
f 320/221/379 321/222/379 345/511/379
f 346/514/380 322/193/380 323/40/381
f 348/515/382 324/148/678 325/139/383
f 327/528/384 326/542/384 64/156/384
f 331/536/385 330/534/385 68/171/385
f 227/427/5 228/430/5 229/433/5
f 526/548/14 575/920/14 577/549/14
f 223/418/4 224/421/4 225/424/4
f 21/551/26 351/553/26 350/552/26
f 144/204/26 352/555/26 351/553/26
f 145/554/26 353/556/26 352/555/26
f 145/554/26 82/264/26 350/552/26
f 351/557/386 355/226/386 354/225/386
f 351/559/387 352/949/387 356/224/387
f 353/560/184 357/563/184 356/224/184
f 353/562/388 350/950/388 354/225/388
f 185/299/389 6/11/389 359/564/389
f 6/11/6 7/50/6 360/566/6
f 186/301/389 363/951/389 362/567/389
f 359/568/390 366/572/393 365/569/391
f 359/568/390 360/952/6 367/571/392
f 361/573/6 368/575/6 367/574/394
f 362/567/6 369/577/6 368/575/6
f 362/567/389 363/951/389 370/576/395
f 364/578/396 358/570/679 365/569/397
f 75/304/399 380/305/680 381/580/400
f 77/278/6 76/279/6 12/45/6
f 9/29/6 73/295/6 72/296/6
f 78/287/6 14/49/6 15/288/6
f 2/273/6 373/583/6 372/581/6
f 2/273/77 168/275/79 374/582/402
f 168/241/404 212/243/407 375/584/405
f 212/243/407 213/588/681 376/586/408
f 191/587/60 377/590/60 376/586/60
f 191/587/26 192/591/26 378/589/26
f 188/269/26 379/953/26 378/589/26
f 74/592/110 380/594/110 379/593/110
f 10/300/6 381/595/6 380/594/6
f 5/14/6 372/581/6 381/595/6
f 185/596/26 358/954/26 364/597/26
f 194/599/26 195/598/26 364/597/26
f 363/601/26 186/955/26 194/599/26
f 392/602/26 393/632/26 394/603/26
f 383/605/6 384/623/6 401/606/6
f 388/608/26 397/612/26 398/609/26
f 388/608/6 389/618/6 396/611/6
f 386/613/409 387/610/409 398/609/409
f 400/615/410 385/616/256 386/613/256
f 401/606/258 384/623/258 385/616/258
f 395/617/411 390/629/411 391/604/411
f 389/618/412 390/629/412 395/617/412
f 402/619/413 383/605/413 382/607/413
f 413/621/414 384/623/414 383/605/414
f 417/622/415 385/616/415 384/623/415
f 417/622/416 415/624/416 386/613/416
f 415/624/417 405/625/682 387/610/418
f 405/625/420 407/627/420 388/608/420
f 419/626/414 389/618/414 388/608/414
f 421/628/421 390/629/421 389/618/421
f 421/628/422 411/630/422 391/604/423
f 411/630/424 408/631/424 392/602/424
f 408/631/425 409/634/426 393/632/426
f 410/633/427 394/603/427 393/632/427
f 420/635/428 395/617/683 394/603/428
f 420/635/430 418/636/430 396/611/430
f 418/636/431 406/638/431 397/612/431
f 404/637/432 398/609/432 397/612/432
f 414/639/433 399/614/684 398/609/434
f 416/640/436 400/615/436 399/614/436
f 416/640/437 412/641/437 401/606/437
f 412/641/431 403/620/431 382/607/431
f 432/642/26 433/672/26 434/643/26
f 423/645/6 424/657/6 441/646/6
f 428/648/26 437/652/26 438/649/26
f 428/648/6 429/660/6 436/651/6
f 426/653/409 427/650/409 438/649/409
f 425/655/410 426/653/410 439/654/256
f 424/657/258 425/655/258 440/656/258
f 430/658/411 431/644/411 434/643/411
f 429/660/412 430/658/412 435/659/412
f 442/661/413 423/645/413 422/647/413
f 453/663/438 424/657/438 423/645/438
f 457/664/439 425/655/439 424/657/439
f 457/664/440 455/665/416 426/653/416
f 455/665/441 445/666/682 427/650/442
f 445/666/444 447/668/444 428/648/444
f 459/667/438 429/660/438 428/648/438
f 461/669/445 430/658/445 429/660/445
f 461/669/446 451/670/446 431/644/446
f 451/670/447 448/671/447 432/642/447
f 448/671/426 449/674/426 433/672/426
f 450/673/448 434/643/448 433/672/448
f 460/675/449 435/659/449 434/643/449
f 460/675/450 458/676/450 436/651/450
f 458/676/451 446/678/451 437/652/451
f 444/677/452 438/649/452 437/652/452
f 454/679/453 439/654/685 438/649/454
f 456/680/455 440/656/455 439/654/436
f 456/680/456 452/681/456 441/646/456
f 452/681/451 443/662/451 422/647/451
f 63/146/26 308/145/458 410/682/457
f 420/684/411 410/682/457 308/145/458
f 418/686/459 420/956/412 332/539/412
f 406/687/6 418/686/459 70/378/460
f 52/74/26 236/73/463 404/689/461
f 414/691/462 404/689/461 236/73/463
f 416/692/465 414/691/462 267/485/464
f 412/694/467 416/957/465 266/486/466
f 403/695/6 412/694/467 38/377/468
f 449/697/26 408/958/26 411/698/457
f 411/698/457 421/701/411 460/700/411
f 421/701/412 419/703/459 458/702/459
f 419/703/459 407/705/6 446/704/6
f 407/705/26 405/707/461 444/706/461
f 405/707/461 415/709/469 454/708/462
f 415/709/469 417/711/470 456/710/465
f 417/711/470 413/713/467 452/712/467
f 413/713/467 402/959/6 443/714/6
f 442/715/6 22/933/6 39/355/468
f 453/716/467 39/355/468 268/489/466
f 457/718/465 268/946/466 269/487/464
f 455/719/462 269/487/464 237/132/463
f 237/132/463 51/131/26 447/721/26
f 447/722/6 51/934/6 71/356/460
f 459/723/459 71/356/460 333/540/412
f 461/725/411 333/948/411 309/42/458
f 309/42/458 62/41/26 448/727/26
f 464/728/26 465/731/26 165/729/26
f 465/731/26 403/734/26 23/732/26
f 22/733/26 442/739/26 464/728/26
f 403/734/26 465/731/26 462/735/26
f 443/737/26 402/736/26 462/735/26
f 442/739/26 443/737/26 463/738/26
f 464/728/26 463/738/26 462/735/26
f 468/740/14 469/775/14 466/741/14
f 472/743/14 473/812/14 470/744/14
f 475/746/6 476/770/6 477/747/6
f 480/749/6 481/781/6 478/750/6
f 484/752/471 485/759/471 482/753/471
f 488/755/472 489/765/472 486/756/472
f 484/752/473 490/776/473 491/758/473
f 487/757/474 486/756/474 492/760/474
f 495/762/198 483/754/198 482/753/198
f 496/764/475 497/769/475 489/765/475
f 499/766/237 495/762/237 494/763/237
f 500/768/476 501/771/476 497/769/476
f 476/770/477 499/766/477 498/767/477
f 479/751/477 478/750/477 501/771/477
f 503/772/478 471/745/478 470/744/478
f 504/774/479 505/777/479 469/775/479
f 490/776/480 503/772/480 502/773/480
f 493/761/480 492/760/480 505/777/480
f 507/778/481 481/781/481 480/749/481
f 508/780/482 478/750/482 481/781/482
f 509/782/483 501/771/686 478/750/484
f 509/782/486 510/783/487 497/769/487
f 510/783/489 511/784/489 489/765/489
f 511/784/491 512/786/687 486/756/492
f 513/785/494 492/760/688 486/756/495
f 514/787/497 505/777/497 492/760/497
f 514/787/498 515/788/499 469/775/499
f 515/788/500 516/790/500 466/741/500
f 517/789/501 467/742/501 466/741/501
f 518/791/502 468/740/502 467/742/502
f 519/792/503 504/774/503 468/740/504
f 519/792/505 520/793/505 493/761/505
f 520/793/506 521/795/689 487/757/507
f 522/794/509 488/755/690 487/757/510
f 523/796/512 496/764/691 488/755/512
f 524/797/513 500/768/692 496/764/514
f 524/797/515 525/798/516 479/751/516
f 525/798/518 506/779/518 480/749/518
f 526/799/519 527/801/520 475/746/520
f 528/800/521 476/770/521 475/746/522
f 529/802/523 499/766/523 476/770/524
f 529/802/525 530/803/525 495/762/525
f 530/803/526 531/804/526 483/754/526
f 531/804/527 532/806/693 484/752/528
f 533/805/530 490/776/694 484/752/531
f 534/807/533 503/772/533 490/776/533
f 534/807/534 535/808/534 471/745/534
f 535/808/535 536/810/535 472/743/535
f 537/809/536 473/812/536 472/743/536
f 538/811/537 470/744/537 473/812/537
f 539/813/538 502/773/538 470/744/538
f 539/813/539 540/814/539 491/758/539
f 540/814/540 541/816/695 485/759/541
f 542/815/543 482/753/696 485/759/544
f 543/817/546 494/763/546 482/753/546
f 544/818/547 498/767/547 494/763/547
f 544/818/548 545/819/549 477/747/549
f 545/819/550 526/799/551 474/748/551
f 59/151/14 304/150/553 518/820/552
f 519/822/478 518/820/552 304/150/553
f 520/824/554 519/960/480 328/531/480
f 521/825/6 520/824/554 66/366/555
f 44/86/14 232/85/558 522/827/556
f 523/829/557 522/827/556 232/85/558
f 524/830/560 523/829/557 259/467/559
f 525/832/562 524/961/560 258/468/561
f 506/833/6 525/832/562 34/365/563
f 516/835/14 515/838/552 538/836/552
f 515/838/552 514/840/478 539/839/478
f 514/840/480 513/842/554 540/841/554
f 513/842/554 512/844/6 541/843/6
f 512/844/14 511/846/556 542/845/556
f 511/846/556 510/848/557 543/847/557
f 510/848/557 509/850/564 544/849/560
f 509/850/564 508/852/562 545/851/562
f 508/852/562 507/962/6 526/853/6
f 527/854/6 30/936/6 35/370/563
f 528/855/562 35/370/563 260/471/561
f 529/857/560 260/945/561 261/469/559
f 530/858/557 261/469/559 233/137/558
f 233/137/558 43/136/14 532/860/14
f 532/861/6 43/935/6 67/368/555
f 533/862/554 67/368/555 329/532/480
f 534/864/478 329/947/478 305/56/553
f 305/56/553 58/55/14 536/866/14
f 409/867/184 408/870/184 537/868/184
f 58/396/184 63/398/184 409/867/184
f 408/870/184 449/963/184 516/871/184
f 516/871/184 449/963/184 448/872/184
f 517/873/184 448/872/184 62/386/184
f 548/874/14 549/964/14 546/875/14
f 548/281/565 551/15/565 552/877/565
f 551/15/6 5/14/6 554/879/566
f 546/875/14 549/964/14 567/880/14
f 558/882/567 559/887/697 565/883/568
f 561/885/570 560/895/698 566/884/569
f 549/886/571 552/889/699 559/887/572
f 556/888/574 565/883/700 559/887/575
f 562/890/577 561/885/701 565/883/578
f 550/891/580 564/902/702 563/892/581
f 557/894/583 567/896/703 566/884/584
f 567/896/586 549/886/704 558/882/587
f 553/897/565 7/50/565 174/283/565
f 550/899/14 174/965/14 206/900/14
f 553/897/589 555/904/600 360/566/6
f 557/894/590 560/895/705 564/902/591
f 564/902/593 560/895/706 561/885/594
f 563/892/596 561/885/707 562/890/597
f 5/14/6 362/567/6 361/573/6
f 569/903/599 568/905/601 554/879/566
f 552/877/6 554/879/566 568/905/601
f 553/897/589 562/907/603 569/903/599
f 562/907/603 556/906/602 568/905/601
f 555/904/600 554/879/566 5/14/6
f 570/908/162 153/341/162 547/340/162
f 557/910/14 576/966/14 572/881/14
f 570/908/162 571/909/162 574/911/162
f 578/901/14 576/966/14 557/910/14
f 31/913/14 153/967/14 570/914/14
f 573/912/162 574/911/162 576/916/162
f 575/917/162 576/916/162 578/338/162
f 506/915/14 570/914/14 573/918/14
f 507/919/14 573/918/14 575/920/14
f 154/921/14 30/968/14 527/550/14
