# Blender 4.2.3 LTS
# www.blender.org
mtllib tails.mtl
o Plane
v -0.084196 1.401700 0.781038
v -0.084196 1.312450 0.701414
v 0.035410 1.401700 0.781038
v 0.035410 1.312450 0.701414
v 0.833825 2.374897 -0.114262
v 0.833825 1.374897 -0.114262
v -0.031937 2.374897 0.751764
v -0.031936 1.374897 0.751764
v -0.031936 2.874897 -0.114262
v -0.898226 2.374897 -0.114262
v -0.898226 1.374897 -0.114262
v -0.031936 2.374897 -0.980287
v -0.031936 1.374897 -0.980287
v -0.031936 0.874898 -0.114262
v -0.031937 2.472738 1.040871
v -0.031936 2.785116 0.885582
v -0.031936 2.546763 0.654067
v -1.109624 1.194491 -0.198923
v 1.045223 1.194491 -0.198923
v -0.465808 2.374897 0.318024
v 0.344436 2.374897 0.375276
v -0.291531 1.983425 0.492249
v -0.158635 1.666916 0.625104
v -0.263247 1.374897 0.520524
v 0.202011 1.374897 0.463923
v 0.090140 1.679079 0.616986
v 0.200939 1.983425 0.518818
v -0.610137 3.249888 0.083820
v 0.546361 3.249847 0.083796
vn -0.0000 -0.6657 0.7462
vn 0.9611 0.2659 -0.0752
vn 0.8052 -0.2702 -0.5278
vn -0.5024 0.2115 0.8384
vn 0.0373 -0.4245 0.9047
vn -0.0820 0.9202 -0.3829
vn -0.9610 0.2660 -0.0752
vn -0.8054 -0.2662 -0.5295
vn 0.0001 0.4217 -0.9067
vn 0.0001 -0.4217 -0.9067
vn 0.0050 -0.9936 -0.1126
vn -1.0000 -0.0000 -0.0000
vn 0.1537 0.2664 -0.9515
vn -0.1538 0.2663 -0.9515
vn -0.7065 0.0363 0.7067
vn 0.7068 0.0361 0.7065
vn -0.7070 -0.0000 0.7072
vn -0.6387 -0.4287 0.6389
vn 0.6535 -0.4412 0.6151
vn 0.7442 -0.0275 0.6674
vn 0.7010 -0.0202 0.7128
vn -0.3946 0.9188 -0.0103
vn 0.3949 0.9187 -0.0103
vt 0.047216 0.421255
vt 0.410103 0.541078
vt 0.607480 0.334646
vt 0.116964 0.492136
vt 0.381088 0.439639
s 1
usemtl texture
f 1/1/1 4/1/1 3/1/1
f 14/2/11 25/2/19 8/2/5
f 6/2/3 27/2/21 25/2/19
f 9/3/6 7/3/4 29/3/23
f 14/2/11 24/2/18 11/2/8
f 8/2/5 23/2/17 24/2/18
f 14/3/11 11/3/8 13/3/10
f 10/3/7 13/3/10 11/3/8
f 10/3/7 9/3/6 12/3/9
f 14/3/11 13/3/10 6/3/3
f 12/3/9 6/3/3 13/3/10
f 12/3/9 9/3/6 5/3/2
f 9/3/6 7/3/4 17/3/12
f 11/2/8 14/2/11 18/2/13
f 14/2/11 6/2/3 19/2/14
f 11/3/8 20/3/15 10/3/7
f 22/3/17 8/3/5 7/3/4
f 26/3/20 27/3/21 7/3/4
f 21/3/16 6/3/3 5/3/2
f 22/2/17 11/2/8 24/2/18
f 22/4/17 24/4/18 23/4/17
f 25/2/19 26/2/20 8/2/5
f 26/4/20 25/4/19 27/4/21
f 9/3/6 10/3/7 28/3/22
f 7/3/4 9/3/6 28/3/22
f 20/5/15 28/5/22 10/5/7
f 5/3/2 9/3/6 29/3/23
f 21/5/16 29/5/23 7/5/4
f 1/1/1 2/1/1 4/1/1
f 14/2/11 6/2/3 25/2/19
f 6/2/3 21/2/16 27/2/21
f 14/2/11 8/2/5 24/2/18
f 10/3/7 12/3/9 13/3/10
f 12/3/9 5/3/2 6/3/3
f 7/3/4 15/3/12 17/3/12
f 17/3/12 16/3/12 9/3/6
f 7/3/4 20/3/15 22/3/17
f 22/3/17 23/3/17 8/3/5
f 7/3/4 8/3/5 26/3/20
f 27/3/21 21/3/16 7/3/4
f 22/2/17 20/2/15 11/2/8
f 20/5/15 7/5/4 28/5/22
f 21/5/16 5/5/2 29/5/23
o Sphere
v 0.355276 0.696665 -0.106901
v 0.355276 0.249245 -0.106901
v -0.032201 0.696665 0.255615
v -0.032201 0.249245 0.255615
v -0.032201 0.920374 -0.106901
v -0.419677 0.696665 -0.106901
v -0.419677 0.249245 -0.106901
v -0.032201 0.696665 -0.469418
v -0.032201 0.249245 -0.469418
v -0.032201 0.025536 -0.106901
v -0.493994 0.882581 -0.020706
v 0.429592 0.882581 -0.020706
vn 0.8134 0.4720 -0.3400
vn 0.9067 -0.4217 -0.0000
vn -0.0000 0.3990 0.9170
vn -0.0000 -0.3990 0.9169
vn -0.0000 0.9786 -0.2057
vn -0.8134 0.4720 -0.3400
vn -0.9067 -0.4217 -0.0000
vn -0.0000 0.3990 -0.9170
vn -0.0000 -0.3990 -0.9170
vn -0.0000 -1.0000 -0.0000
vn -0.1994 0.3454 -0.9170
vn 0.1994 0.3454 -0.9170
vt 0.414693 0.434379
vt 0.580386 0.454065
s 1
usemtl texture
f 39/6/33 31/6/25 33/6/27
f 31/6/25 32/6/26 33/6/27
f 30/6/24 34/6/28 32/6/26
f 39/6/33 33/6/27 36/6/30
f 32/6/26 36/6/30 33/6/27
f 32/6/26 34/6/28 35/6/29
f 39/7/33 36/7/30 38/7/32
f 35/7/29 38/7/32 36/7/30
f 35/7/29 34/7/28 37/7/31
f 39/7/33 38/7/32 31/7/25
f 37/7/31 31/7/25 38/7/32
f 37/7/31 34/7/28 30/7/24
f 34/6/28 35/6/29 40/6/34
f 30/6/24 34/6/28 41/6/35
f 31/6/25 30/6/24 32/6/26
f 32/6/26 35/6/29 36/6/30
f 35/7/29 37/7/31 38/7/32
f 37/7/31 30/7/24 31/7/25
o Sphere.003
v 1.340701 0.913453 -0.114262
v 1.340701 0.615789 0.057595
v 1.340701 0.615789 -0.286119
v 0.107756 0.765011 -0.114262
v 1.285879 0.571897 -0.355543
v 1.285879 1.003530 -0.099924
v 1.285879 0.566341 0.146072
v 2.157433 0.690011 -0.145629
vn 0.1195 -0.9928 -0.0000
vn 0.1789 0.5061 -0.8437
vn 0.1789 0.5061 0.8437
vn 0.9992 -0.0400 -0.0000
vn -0.4570 -0.4362 -0.7752
vn -0.4292 0.9028 0.0278
vn -0.4292 -0.4448 0.7861
vn 0.9986 -0.0260 -0.0462
vt 0.532810 0.342810
vt 0.450784 0.303438
s 1
usemtl texture
f 42/8/36 43/8/37 45/8/39
f 43/8/37 44/8/38 45/8/39
f 44/8/38 42/8/36 45/8/39
f 46/9/40 47/9/41 49/9/43
f 46/9/40 48/9/42 47/9/41
f 47/9/41 48/9/42 49/9/43
f 48/9/42 46/9/40 49/9/43
o Sphere.001
v -1.420601 0.913453 -0.114262
v -1.420601 0.615789 0.057595
v -1.420601 0.615789 -0.286119
v -0.187656 0.765011 -0.114262
v -1.365779 0.571897 -0.355543
v -1.365779 1.003530 -0.099924
v -1.365779 0.566341 0.146072
v -2.237333 0.690011 -0.145629
vn -0.1195 -0.9928 -0.0000
vn -0.1789 0.5061 -0.8437
vn -0.1789 0.5061 0.8437
vn -0.9992 -0.0400 -0.0000
vn 0.4570 -0.4362 -0.7752
vn 0.4292 0.9028 0.0278
vn 0.4292 -0.4448 0.7861
vn -0.9986 -0.0260 -0.0462
vt 0.532810 0.342810
vt 0.450784 0.303438
s 1
usemtl texture
f 50/10/44 53/10/47 51/10/45
f 51/10/45 53/10/47 52/10/46
f 52/10/46 53/10/47 50/10/44
f 54/11/48 57/11/51 55/11/49
f 54/11/48 55/11/49 56/11/50
f 55/11/49 57/11/51 56/11/50
f 56/11/50 57/11/51 54/11/48
o Cube
v -0.207030 0.170462 -0.088233
v -0.123555 0.349846 -0.132879
v -0.705985 0.165497 -1.372538
v -0.034149 0.170462 -0.163989
v -0.573012 0.051948 -0.738319
v -0.455592 0.304276 -0.801119
v -0.329829 0.051948 -0.844881
vn -0.7407 -0.4499 0.4990
vn 0.0322 0.9960 -0.0839
vn -0.3637 0.4227 -0.8301
vn 0.8641 -0.4000 -0.3056
vn -0.7451 -0.5941 0.3032
vn -0.0870 0.9914 -0.0982
vn 0.6932 -0.6263 -0.3568
vt 0.304778 0.408131
vt 0.573824 0.526248
s 1
usemtl texture
f 62/12/56 63/12/57 60/12/54
f 60/12/54 63/12/57 64/12/58
f 64/13/58 58/13/52 62/13/56
f 58/13/52 63/13/57 62/13/56
f 63/13/57 61/13/55 64/13/58
f 60/12/54 64/12/58 62/12/56
f 64/13/58 61/13/55 58/13/52
f 58/13/52 59/13/53 63/13/57
f 63/13/57 59/13/53 61/13/55
o Cube.001
v -0.027402 0.162915 -0.172608
v 0.055390 0.345258 -0.138511
v 0.701160 0.178017 -1.357168
v 0.144114 0.168834 -0.090880
v 0.313233 0.051259 -0.844817
v 0.429693 0.307750 -0.796854
v 0.554496 0.059584 -0.729854
vn -0.8362 -0.4186 -0.3542
vn -0.0836 0.9911 -0.1040
vn 0.3754 0.4335 -0.8193
vn 0.7215 -0.4360 0.5379
vn -0.6470 -0.6617 -0.3788
vn 0.0727 0.9934 -0.0891
vn 0.7537 -0.5666 0.3330
vt 0.304778 0.408131
vt 0.573824 0.526248
s 1
usemtl texture
f 69/14/63 70/14/64 67/14/61
f 67/14/61 70/14/64 71/14/65
f 69/15/63 68/15/62 65/15/59
f 65/15/59 70/15/64 69/15/63
f 70/15/64 68/15/62 71/15/65
f 67/14/61 71/14/65 69/14/63
f 69/15/63 71/15/65 68/15/62
f 65/15/59 66/15/60 70/15/64
f 70/15/64 66/15/60 68/15/62
o Cube.002
v -0.642196 -1.283042 0.219489
v -0.642196 -0.699959 0.219489
v 0.120007 -1.283042 0.219489
v 0.120007 -0.699959 0.219489
v -0.261094 -1.283042 -0.425447
v -0.261094 -0.662709 -0.425447
v -0.369609 -1.283042 0.941367
v -0.152579 -1.283042 0.941367
v -0.687526 -0.592741 0.245060
v -0.261094 -0.551061 -0.476589
v 0.165338 -0.592741 0.245060
v -0.255260 -0.627274 -0.223268
v -0.255260 0.244561 -0.223268
v -0.139251 -0.627274 -0.022336
v -0.139251 0.244561 -0.022336
v -0.371268 -0.627274 -0.022336
v -0.371268 0.244561 -0.022336
vn 0.8609 -0.0000 -0.5087
vn -0.0000 -1.0000 -0.0000
vn -0.0000 -0.2320 0.9727
vn -0.8609 -0.0000 -0.5087
vn 0.9355 -0.0000 0.3533
vn -0.9355 -0.0000 0.3533
vn -0.0000 0.7779 0.6284
vn -0.0000 0.9983 0.0577
vn 0.8317 -0.2312 -0.5048
vn -0.8317 -0.2312 -0.5048
vn -0.0000 -0.0000 -1.0000
vn 0.9614 -0.0000 0.2752
vn -0.9614 -0.0000 0.2752
vt 0.770366 0.335627
vt 0.368758 0.454065
vt 0.649288 0.643745
vt 0.649287 0.643745
s 0
usemtl texture
f 76/16/66 75/16/66 74/16/66
f 72/16/67 76/16/67 74/16/67
f 75/17/68 80/17/68 73/17/68
f 73/16/69 76/16/69 72/16/69
f 74/17/70 75/17/70 79/17/70
f 73/17/71 72/17/71 78/17/71
f 74/17/67 78/17/67 72/17/67
f 73/17/72 79/17/72 75/17/72
f 81/17/73 80/17/73 82/17/73
f 77/17/74 82/17/74 75/17/74
f 77/17/75 80/17/75 81/17/75
s 1
f 84/18/76 85/19/77 83/18/76
f 86/19/77 87/19/78 85/19/77
f 88/19/78 83/19/76 87/19/78
s 0
f 76/16/66 77/16/66 75/16/66
f 75/17/68 82/17/68 80/17/68
f 73/16/69 77/16/69 76/16/69
f 74/17/67 79/17/67 78/17/67
f 73/17/72 78/17/72 79/17/72
f 77/17/74 81/17/74 82/17/74
f 77/17/75 73/17/75 80/17/75
s 1
f 84/18/76 86/19/77 85/19/77
f 86/19/77 88/19/78 87/19/78
f 88/19/78 84/19/76 83/19/76
o Cube.003
v -0.226657 -1.283042 0.219489
v -0.226657 -0.699959 0.219489
v 0.535546 -1.283042 0.219489
v 0.535546 -0.699959 0.219489
v 0.154444 -1.283042 -0.425447
v 0.154444 -0.662709 -0.425447
v 0.045929 -1.283042 0.941367
v 0.262960 -1.283042 0.941367
v -0.271988 -0.592741 0.245060
v 0.154444 -0.551061 -0.476589
v 0.580876 -0.592741 0.245060
v 0.160279 -0.627274 -0.223268
v 0.160279 0.244561 -0.223268
v 0.276287 -0.627274 -0.022336
v 0.276287 0.244561 -0.022336
v 0.044270 -0.627274 -0.022336
v 0.044270 0.244561 -0.022336
vn 0.8609 -0.0000 -0.5087
vn -0.0000 -1.0000 -0.0000
vn -0.0000 -0.2320 0.9727
vn -0.8609 -0.0000 -0.5087
vn 0.9355 -0.0000 0.3533
vn -0.9355 -0.0000 0.3533
vn -0.0000 0.7779 0.6284
vn -0.0000 0.9983 0.0577
vn 0.8317 -0.2312 -0.5048
vn -0.8317 -0.2312 -0.5048
vn -0.0000 -0.0000 -1.0000
vn 0.9614 -0.0000 0.2752
vn -0.9614 -0.0000 0.2752
vt 0.770366 0.335627
vt 0.368758 0.454065
vt 0.649288 0.643745
vt 0.649287 0.643745
s 0
usemtl texture
f 93/20/79 92/20/79 91/20/79
f 89/20/80 93/20/80 91/20/80
f 92/21/81 97/21/81 90/21/81
f 90/20/82 93/20/82 89/20/82
f 91/21/83 92/21/83 96/21/83
f 90/21/84 89/21/84 95/21/84
f 91/21/80 95/21/80 89/21/80
f 90/21/85 96/21/85 92/21/85
f 98/21/86 97/21/86 99/21/86
f 94/21/87 99/21/87 92/21/87
f 94/21/88 97/21/88 98/21/88
s 1
f 101/22/89 102/23/90 100/22/89
f 103/23/90 104/23/91 102/23/90
f 105/23/91 100/23/89 104/23/91
s 0
f 93/20/79 94/20/79 92/20/79
f 92/21/81 99/21/81 97/21/81
f 90/20/82 94/20/82 93/20/82
f 91/21/80 96/21/80 95/21/80
f 90/21/85 95/21/85 96/21/85
f 94/21/87 98/21/87 99/21/87
f 94/21/88 90/21/88 97/21/88
s 1
f 101/22/89 103/23/90 102/23/90
f 103/23/90 105/23/91 104/23/91
f 105/23/91 101/23/89 100/23/89
